<mxfile host="Electron" agent="Mozilla/5.0 (Macintosh; Intel Mac OS X 10_15_7) AppleWebKit/537.36 (KHTML, like Gecko) draw.io/24.7.5 Chrome/126.0.6478.183 Electron/31.3.0 Safari/537.36" version="24.7.5">
  <diagram id="0459HdI3VxSeBe_5eaDg" name="Page-1">
    <mxGraphModel dx="3354" dy="2596" grid="0" gridSize="10" guides="1" tooltips="1" connect="1" arrows="1" fold="1" page="1" pageScale="1" pageWidth="827" pageHeight="1169" background="#ffffff" math="0" shadow="0">
      <root>
        <mxCell id="0" />
        <mxCell id="1" parent="0" />
        <mxCell id="YeY76Y3rS6GUA46lo31o-1" value="" style="shape=image;verticalLabelPosition=bottom;labelBackgroundColor=#ffffff;verticalAlign=top;aspect=fixed;imageAspect=0;image=data:image/png,iVBORw0KGgoAAAANSUhEUgAAAOEAAADhCAMAAAAJbSJIAAAAflBMVEX///8AAAAMDAzj4+Px8fHn5+fCwsKTk5Ps7OxwcHD19fXa2toICAh6enpbW1s5OTkbGxucnJylpaWysrLT09MjIyP5+fmBgYGHh4dTU1O4uLhfX1/Jyck/Pz8oKCgzMzOpqalra2sVFRVMTExlZWVFRUWFhYUuLi6Xl5eOjo4p6JJoAAAJMUlEQVR4nO2da3eqOhCGE0CKoFYuYlG8gHbb/v8/eAgJl3CHU0nCyvNlI0VX3j3MZCaEBACJRCKRSCQSiUQikUjGEyobhSWbvfduiQFky/ndAoHHWKH6doXgzFTg+v0CQchS4ObtXohg6YnPOQQy9URrFoV+xEzgdhaBLD1xFi9EsPLEaC6BQGekcDYTAhAxETiXFyLYeOI8gZTwzUDgfF6IYOCJyoxeiJg/O50jIy0zvyfOUFTQPGYWOLcJZzdiPLMXIuY14jxFBc28JcaKgcJZs9M505mCGftEZdZ0pmA+T5w3nSmYL5wyMiHwByU2yh5TOlSS49JhL0dGAgd64tHyEOjas4d5QnjQ0yNrPeQnWJkQDCsxbHypAYu8ZAvh1cCHXwN+Yf50pmCIEYnC1XSFDNKZHP85g8J/TKRlDDDi/1bIJJ0p+Hy7QpZeiOg3YnOkeWn4sFchi6KCwt/1NXHrhYhTcvhwMUlGu3fSo1Nvl8omIy3Ta8QNoe+6Fhh7IeIysenDYG/CN5cYe4bpTEFPYrMN9YTQTQ53OjoOw8T5Ni4+ve3+MquigqanxGiOpTHpLezuLxtMFFXxu+vE5v4wJhGkWyG7ooKm2xObFe6HKIy58EJEpye2KBxyl7JOZwo6jdis8DBE4ezD3K10JjbdeWmXQrZFBc2po50OvkRLkpqnmrKKEoUePuzKS/kxIegsMbKZfh1SmuEhnSnoMuJUuAmkKf0lxmi+WGuq0G7Ew2fKLTmM8eEnGlm84cND6/c4KCporm0tLUWazLOOECqkAm6NpXx5IaLViM29xaYnp+GjqKDw2x5FTVPIS0Zapi2xmaaQj6Kiwu0PFfJowlZPnKLwwJ8XIvzmEZvuWOo0foefooKm2RNvQUpaJivpqFuawG2KwzpceiFoNeJ4eCoqaP4oO425KipoeoyoHDA9dQZ/6UxBjxGfqxSj58EvxyYEZvewW6m36IC3ooLG/QOF3BUVNC2JzQiFfKYzBZ1GHKJww2c6U2B2zXYbovCXafOH0GXEIQo1pq0fxL699cEJ0zGow286U9AdTnvgtKig6ekTuxHBhP8vOxXACxGtw2698J3OFEw24pXnjLSM2T9RqhmeiwqaqUYUxAsT/GlG5D+dKZjUJ+45LyooJhmR96KCZoIRFZFMmITT8S+ZiuSFiPtohbyOkbbyGilQlHSmYKQn8jxG2sLIEuODdXsnMM4TTdbNncKYGTTieSFihBGFKSpotOF9opgmHGNEIb0QEQ8UKFo6UzCwT3yJ6YWIgcW+WEUFzTAjCuuFCeaQ7FRcL0QMCKd74YoKCr/zeWKKqH1hRq8RY7FNmCQ2fXNsRCwqaJqndRWIM0baSvs8Z4TYgRTTacS9uOlMQWeJ8cO6dX9ClxF91o37G9oFih9IMa1GFLiooDHa+sQlBFJMmxFFLipo/OblBpbihYjG7PQl1sOmboymEkP0ooKmwYjKcrwQodWz0yV5IaJmxIPodWGV2ojNcvrCDGfhJkzCKT12arNuzxug31JbViAllCcPL6MurFIy4mFJ6UxBqcRYohciCiMupLSvs2wvRBAj3pbphQjSJy7XhJkRF+uFCf7STZhmp7flZaRlVq8FFhU09qK9EGHcWbdAIpFIJBKJRJLUR4tKO80vNGa2peo9N0iLo48nAPften1i0rA/w7iivcLgo3zOxisEbb/BHX5HD8Gfgmo3tGQ6DHzXtvXEpHfb0RzoubYH9DuI8JLdhoP+5oaWat1V+y7WaL5226mWBQMtuNzgHdyU4OIlRbwCX+ABzV36nF6NlW/4RJtf2Q6MLzBg3ehRaHjoLACmb+2PAO6An9ylthXF2i5TaEPdX0N/B/8ZDjyZ0UGoSJTYcIVsCE7nb3gEEYTr5C5VwbGk8AgB+IXGDvqpix5jocZKiR/uLLj9UY7AVz/gyYFWpvCAYk6u0BRRofFKY+nOgx9OYsOf0y9RuNECCH7g5d/WCeFa329AkCq0T7e9UKFGC9BCFnEEttfn7gvcDtendldU8HvRohj429vr+gPs1yHwQHRDCg/xwWXd6Hdiw5VQYWY8NtfLBf4FnrtwE0oI4YIfa/jOGiVJOut2lPBPDqKWTZv39PxppNtp+AkxTwqz1QGrRSBZMXnsgs48KiSviFbnUX7g02M795pC39RYR1/Sps9KO17TppRQCjXX3n7HtdtjdsgLP3Q2bRDdY3+MUmhxcss6TVOcGk8OgEuFpB076iTZfXX03pNcKtQe9SlAKp6X/xj96iSXCpPittZfkL5i/DICfCokcsqDhkeqbb6H0gLdGxBY+VRIJuMptTMwSW30r9IrXfEXWV52FaN9EfJKyrikH+2SQhNdgT/gHUzPLAcGyF6wReWn4hNRYobKisJ7nBms6G+QuW4fZYWwwpNlx0+WuSzSGjv3zPrC1+lmHhMUMl0axMIvw5zzE1H6OV3xOKq2NN1obIJCtjPh8G16zdZwVrHidGj7WFOIIlK/Qo0vhT9ZuzAkuKZ3rb62ddwreqQKeYEhChH8xNIssmSl0ppufw6JSL6ACrM1E8gnHOWr1UZeaKkiKiS7UGJH9PCH+gxLkRXqZVHEK+tlncgKVzjTPqMb0yeRtT5edhJYIamWFNRk0vriMWjoOni0ai2yQre4M4mlshEa91J9TV1MhWTUAqU1pPgl5WLDQgNiKiS7rG7yV2HPuK/w6gIFVZgl22EWVkmS9bschSFei/U36yvICA026CVM71mhY2m2ydPOwKM2MTmL20i6RpH7Q5CP7of4nyxFpdpYU0gGfnUyDMC5QiKNVLwhOUu18V5VGJimqR/zF7xbFN5ZyGnAKI9X5GsC45NPDVnqd1MobFxBuUXhwQ1PDg+T48rb/eWPnCKi+POz2HhGbVuFr6pwla2Ggv5rmOkqKPftTnayaVtSZN/GHbuqCqn/NA42gVqVmpOPdZsNW3MhhZVMYLdpVGiVLmH+BAqUN0AqDZ2qpUYet7lCyjxPD28UUVNYThh4eCfzHuwwwb101tim0SYOPlRgPdCfcVnlpMnA9fyVGsdNvhu4aCV+dMUjf6ITrq/kMg7u0qR5GfRp1dM9z9LyK8jplZecVclQh4/+4Oe/Uf625Vn5ZRKJRCKRSCQSiUQikfwf/gNCwYxSAv62HAAAAABJRU5ErkJggg==;" parent="1" vertex="1">
          <mxGeometry x="545.5" y="775" width="129" height="129" as="geometry" />
        </mxCell>
        <mxCell id="FxR3PeblLHVCR7jEJt5I-9" style="edgeStyle=orthogonalEdgeStyle;rounded=0;orthogonalLoop=1;jettySize=auto;html=1;" parent="1" source="YeY76Y3rS6GUA46lo31o-11" target="YeY76Y3rS6GUA46lo31o-1" edge="1">
          <mxGeometry relative="1" as="geometry">
            <Array as="points">
              <mxPoint x="416" y="679" />
              <mxPoint x="498" y="679" />
              <mxPoint x="498" y="817" />
            </Array>
          </mxGeometry>
        </mxCell>
        <mxCell id="li85Y_7yYVKvvSDK2la5-5" value="CREATE ES CONFIG" style="edgeLabel;html=1;align=center;verticalAlign=middle;resizable=0;points=[];" parent="FxR3PeblLHVCR7jEJt5I-9" vertex="1" connectable="0">
          <mxGeometry x="0.0619" y="-2" relative="1" as="geometry">
            <mxPoint as="offset" />
          </mxGeometry>
        </mxCell>
        <mxCell id="FxR3PeblLHVCR7jEJt5I-10" style="edgeStyle=orthogonalEdgeStyle;rounded=0;orthogonalLoop=1;jettySize=auto;html=1;exitX=0.25;exitY=1;exitDx=0;exitDy=0;entryX=0.5;entryY=0;entryDx=0;entryDy=0;" parent="1" source="YeY76Y3rS6GUA46lo31o-11" target="h98c74GSFJlit1nfgGsa-1" edge="1">
          <mxGeometry relative="1" as="geometry">
            <mxPoint x="133" y="704" as="targetPoint" />
          </mxGeometry>
        </mxCell>
        <mxCell id="FxR3PeblLHVCR7jEJt5I-11" value="GET POD" style="edgeLabel;html=1;align=center;verticalAlign=middle;resizable=0;points=[];" parent="FxR3PeblLHVCR7jEJt5I-10" vertex="1" connectable="0">
          <mxGeometry x="0.1488" y="3" relative="1" as="geometry">
            <mxPoint x="1" as="offset" />
          </mxGeometry>
        </mxCell>
        <mxCell id="li85Y_7yYVKvvSDK2la5-2" style="edgeStyle=orthogonalEdgeStyle;rounded=0;orthogonalLoop=1;jettySize=auto;html=1;" parent="1" source="YeY76Y3rS6GUA46lo31o-11" target="li85Y_7yYVKvvSDK2la5-1" edge="1">
          <mxGeometry relative="1" as="geometry">
            <Array as="points">
              <mxPoint x="407" y="874" />
            </Array>
          </mxGeometry>
        </mxCell>
        <mxCell id="li85Y_7yYVKvvSDK2la5-3" value="LABELS MATCH&lt;br&gt;CREATE USER FOR ANNOTATED ROLE" style="edgeLabel;html=1;align=center;verticalAlign=middle;resizable=0;points=[];" parent="li85Y_7yYVKvvSDK2la5-2" vertex="1" connectable="0">
          <mxGeometry x="-0.4301" y="-4" relative="1" as="geometry">
            <mxPoint x="-49" y="103" as="offset" />
          </mxGeometry>
        </mxCell>
        <mxCell id="li85Y_7yYVKvvSDK2la5-6" style="edgeStyle=orthogonalEdgeStyle;rounded=0;orthogonalLoop=1;jettySize=auto;html=1;exitX=0.25;exitY=0;exitDx=0;exitDy=0;entryX=0.5;entryY=1;entryDx=0;entryDy=0;" parent="1" source="YeY76Y3rS6GUA46lo31o-11" target="YeY76Y3rS6GUA46lo31o-13" edge="1">
          <mxGeometry relative="1" as="geometry">
            <Array as="points">
              <mxPoint x="382" y="524" />
              <mxPoint x="194" y="524" />
            </Array>
          </mxGeometry>
        </mxCell>
        <mxCell id="li85Y_7yYVKvvSDK2la5-7" value="s.092357235f" style="edgeLabel;html=1;align=center;verticalAlign=middle;resizable=0;points=[];" parent="li85Y_7yYVKvvSDK2la5-6" vertex="1" connectable="0">
          <mxGeometry x="-0.5367" y="4" relative="1" as="geometry">
            <mxPoint x="1" as="offset" />
          </mxGeometry>
        </mxCell>
        <mxCell id="li85Y_7yYVKvvSDK2la5-8" style="edgeStyle=orthogonalEdgeStyle;rounded=0;orthogonalLoop=1;jettySize=auto;html=1;" parent="1" source="YeY76Y3rS6GUA46lo31o-11" target="YeY76Y3rS6GUA46lo31o-1" edge="1">
          <mxGeometry relative="1" as="geometry" />
        </mxCell>
        <mxCell id="li85Y_7yYVKvvSDK2la5-9" value="CREATE ONE TIME TOKEN" style="edgeLabel;html=1;align=center;verticalAlign=middle;resizable=0;points=[];" parent="li85Y_7yYVKvvSDK2la5-8" vertex="1" connectable="0">
          <mxGeometry x="-0.2216" y="-3" relative="1" as="geometry">
            <mxPoint x="18" y="54" as="offset" />
          </mxGeometry>
        </mxCell>
        <mxCell id="YeY76Y3rS6GUA46lo31o-11" value="SOLON" style="rounded=0;whiteSpace=wrap;html=1;fillColor=#dae8fc;strokeColor=#6c8ebf;" parent="1" vertex="1">
          <mxGeometry x="347" y="617" width="138" height="47" as="geometry" />
        </mxCell>
        <mxCell id="YeY76Y3rS6GUA46lo31o-15" style="edgeStyle=orthogonalEdgeStyle;rounded=0;orthogonalLoop=1;jettySize=auto;html=1;" parent="1" source="YeY76Y3rS6GUA46lo31o-12" target="YeY76Y3rS6GUA46lo31o-13" edge="1">
          <mxGeometry relative="1" as="geometry" />
        </mxCell>
        <mxCell id="YeY76Y3rS6GUA46lo31o-19" value="GET CONFIG&lt;br&gt;" style="edgeLabel;html=1;align=center;verticalAlign=middle;resizable=0;points=[];" parent="YeY76Y3rS6GUA46lo31o-15" vertex="1" connectable="0">
          <mxGeometry x="-0.2672" relative="1" as="geometry">
            <mxPoint as="offset" />
          </mxGeometry>
        </mxCell>
        <mxCell id="li85Y_7yYVKvvSDK2la5-23" style="edgeStyle=orthogonalEdgeStyle;rounded=0;orthogonalLoop=1;jettySize=auto;html=1;entryX=1;entryY=0.5;entryDx=0;entryDy=0;" parent="1" source="YeY76Y3rS6GUA46lo31o-12" target="YeY76Y3rS6GUA46lo31o-1" edge="1">
          <mxGeometry relative="1" as="geometry">
            <Array as="points">
              <mxPoint x="194" y="233" />
              <mxPoint x="735" y="233" />
              <mxPoint x="735" y="840" />
            </Array>
          </mxGeometry>
        </mxCell>
        <mxCell id="YeY76Y3rS6GUA46lo31o-12" value="API" style="rounded=0;whiteSpace=wrap;html=1;fillColor=#dae8fc;strokeColor=#6c8ebf;" parent="1" vertex="1">
          <mxGeometry x="128.5" y="278" width="130" height="50" as="geometry" />
        </mxCell>
        <mxCell id="YeY76Y3rS6GUA46lo31o-22" style="edgeStyle=orthogonalEdgeStyle;rounded=0;orthogonalLoop=1;jettySize=auto;html=1;" parent="1" source="YeY76Y3rS6GUA46lo31o-13" target="YeY76Y3rS6GUA46lo31o-11" edge="1">
          <mxGeometry relative="1" as="geometry" />
        </mxCell>
        <mxCell id="YeY76Y3rS6GUA46lo31o-24" value="REQUEST ONE TIME TOKEN" style="edgeLabel;html=1;align=center;verticalAlign=middle;resizable=0;points=[];" parent="YeY76Y3rS6GUA46lo31o-22" vertex="1" connectable="0">
          <mxGeometry x="-0.0648" relative="1" as="geometry">
            <mxPoint x="30" y="39" as="offset" />
          </mxGeometry>
        </mxCell>
        <mxCell id="YeY76Y3rS6GUA46lo31o-13" value="Ptolemaios" style="rounded=0;whiteSpace=wrap;html=1;fillColor=#ffcd28;strokeColor=#d79b00;gradientColor=#ffa500;" parent="1" vertex="1">
          <mxGeometry x="153" y="440" width="81" height="35" as="geometry" />
        </mxCell>
        <mxCell id="YeY76Y3rS6GUA46lo31o-18" value="&lt;span style=&quot;color: rgba(0 , 0 , 0 , 0) ; font-family: monospace ; font-size: 0px ; background-color: rgb(248 , 249 , 250)&quot;&gt;%3CmxGraphModel%3E%3Croot%3E%3CmxCell%20id%3D%220%22%2F%3E%3CmxCell%20id%3D%221%22%20parent%3D%220%22%2F%3E%3CmxCell%20id%3D%222%22%20value%3D%22GET%20CONFIG%22%20style%3D%22edgeLabel%3Bhtml%3D1%3Balign%3Dcenter%3BverticalAlign%3Dmiddle%3Bresizable%3D0%3Bpoints%3D%5B%5D%3B%22%20vertex%3D%221%22%20connectable%3D%220%22%20parent%3D%221%22%3E%3CmxGeometry%20x%3D%22193%22%20y%3D%22399%22%20as%3D%22geometry%22%2F%3E%3C%2FmxCell%3E%3C%2Froot%3E%3C%2FmxGraphModel%3E&lt;/span&gt;" style="edgeStyle=orthogonalEdgeStyle;rounded=0;orthogonalLoop=1;jettySize=auto;html=1;entryX=0.5;entryY=0;entryDx=0;entryDy=0;" parent="1" source="YeY76Y3rS6GUA46lo31o-16" target="bqaqiRXCgSc5tPmss6hg-3" edge="1">
          <mxGeometry relative="1" as="geometry">
            <mxPoint x="615" y="440" as="targetPoint" />
          </mxGeometry>
        </mxCell>
        <mxCell id="YeY76Y3rS6GUA46lo31o-20" value="&lt;span style=&quot;color: rgba(0 , 0 , 0 , 0) ; font-family: monospace ; font-size: 0px ; background-color: rgb(248 , 249 , 250)&quot;&gt;%3CmxGraphModel%3E%3Croot%3E%3CmxCell%20id%3D%220%22%2F%3E%3CmxCell%20id%3D%221%22%20parent%3D%220%22%2F%3E%3CmxCell%20id%3D%222%22%20value%3D%22GET%20CONFIG%22%20style%3D%22edgeLabel%3Bhtml%3D1%3Balign%3Dcenter%3BverticalAlign%3Dmiddle%3Bresizable%3D0%3Bpoints%3D%5B%5D%3B%22%20vertex%3D%221%22%20connectable%3D%220%22%20parent%3D%221%22%3E%3CmxGeometry%20x%3D%22193%22%20y%3D%22399%22%20as%3D%22geometry%22%2F%3E%3C%2FmxCell%3E%3C%2Froot%3E%3C%2FmxGraphModel%3GET&lt;/span&gt;" style="edgeLabel;html=1;align=center;verticalAlign=middle;resizable=0;points=[];" parent="YeY76Y3rS6GUA46lo31o-18" vertex="1" connectable="0">
          <mxGeometry x="-0.2308" y="2" relative="1" as="geometry">
            <mxPoint as="offset" />
          </mxGeometry>
        </mxCell>
        <mxCell id="YeY76Y3rS6GUA46lo31o-21" value="GET CONFIG" style="edgeLabel;html=1;align=center;verticalAlign=middle;resizable=0;points=[];" parent="YeY76Y3rS6GUA46lo31o-18" vertex="1" connectable="0">
          <mxGeometry x="0.0462" y="1" relative="1" as="geometry">
            <mxPoint x="-2" y="-7" as="offset" />
          </mxGeometry>
        </mxCell>
        <mxCell id="YeY76Y3rS6GUA46lo31o-16" value="Dataseeder" style="rounded=0;whiteSpace=wrap;html=1;fillColor=#bac8d3;strokeColor=#23445d;" parent="1" vertex="1">
          <mxGeometry x="550" y="278" width="130" height="50" as="geometry" />
        </mxCell>
        <mxCell id="li85Y_7yYVKvvSDK2la5-19" style="edgeStyle=orthogonalEdgeStyle;rounded=0;orthogonalLoop=1;jettySize=auto;html=1;entryX=1;entryY=0.5;entryDx=0;entryDy=0;" parent="1" target="YeY76Y3rS6GUA46lo31o-1" edge="1">
          <mxGeometry relative="1" as="geometry">
            <Array as="points">
              <mxPoint x="735" y="454" />
              <mxPoint x="735" y="840" />
            </Array>
            <mxPoint x="645.5" y="454" as="sourcePoint" />
          </mxGeometry>
        </mxCell>
        <mxCell id="li85Y_7yYVKvvSDK2la5-20" value="GET ES CONFIG" style="edgeLabel;html=1;align=center;verticalAlign=middle;resizable=0;points=[];" parent="li85Y_7yYVKvvSDK2la5-19" vertex="1" connectable="0">
          <mxGeometry x="-0.0943" y="2" relative="1" as="geometry">
            <mxPoint as="offset" />
          </mxGeometry>
        </mxCell>
        <mxCell id="li85Y_7yYVKvvSDK2la5-21" style="edgeStyle=orthogonalEdgeStyle;rounded=0;orthogonalLoop=1;jettySize=auto;html=1;entryX=1;entryY=0.25;entryDx=0;entryDy=0;exitX=1;exitY=0.5;exitDx=0;exitDy=0;" parent="1" source="bqaqiRXCgSc5tPmss6hg-3" target="YeY76Y3rS6GUA46lo31o-16" edge="1">
          <mxGeometry relative="1" as="geometry">
            <Array as="points">
              <mxPoint x="635" y="454" />
              <mxPoint x="700" y="454" />
              <mxPoint x="700" y="291" />
            </Array>
            <mxPoint x="645.5" y="454" as="sourcePoint" />
          </mxGeometry>
        </mxCell>
        <mxCell id="li85Y_7yYVKvvSDK2la5-22" value="RETURN CONFIG" style="edgeLabel;html=1;align=center;verticalAlign=middle;resizable=0;points=[];" parent="li85Y_7yYVKvvSDK2la5-21" vertex="1" connectable="0">
          <mxGeometry x="0.3403" y="-2" relative="1" as="geometry">
            <mxPoint as="offset" />
          </mxGeometry>
        </mxCell>
        <mxCell id="FxR3PeblLHVCR7jEJt5I-12" style="edgeStyle=orthogonalEdgeStyle;rounded=0;orthogonalLoop=1;jettySize=auto;html=1;entryX=0.25;entryY=1;entryDx=0;entryDy=0;exitX=1;exitY=0.5;exitDx=0;exitDy=0;" parent="1" source="h98c74GSFJlit1nfgGsa-1" target="YeY76Y3rS6GUA46lo31o-11" edge="1">
          <mxGeometry relative="1" as="geometry">
            <mxPoint x="180" y="751" as="sourcePoint" />
          </mxGeometry>
        </mxCell>
        <mxCell id="FxR3PeblLHVCR7jEJt5I-13" value="*v1.Pod" style="edgeLabel;html=1;align=center;verticalAlign=middle;resizable=0;points=[];" parent="FxR3PeblLHVCR7jEJt5I-12" vertex="1" connectable="0">
          <mxGeometry x="-0.4662" relative="1" as="geometry">
            <mxPoint y="1" as="offset" />
          </mxGeometry>
        </mxCell>
        <mxCell id="FxR3PeblLHVCR7jEJt5I-2" value="&lt;h1&gt;SETUP API:&lt;/h1&gt;&lt;div&gt;&lt;br&gt;&lt;/div&gt;&lt;div&gt;&lt;pre style=&quot;color: rgb(169 , 183 , 198) ; font-family: &amp;#34;jetbrains mono&amp;#34; , monospace ; font-size: 9.8pt&quot;&gt;&lt;span style=&quot;background-color: rgb(43 , 43 , 43)&quot;&gt;&lt;span style=&quot;color: #cc7832&quot;&gt;spec&lt;/span&gt;:&lt;span style=&quot;color: #6a8759&quot;&gt;&lt;br&gt;&lt;/span&gt;&lt;span style=&quot;color: #6a8759&quot;&gt;  &lt;/span&gt;&lt;span style=&quot;color: #cc7832&quot;&gt;template&lt;/span&gt;:&lt;br&gt;    &lt;span style=&quot;color: #cc7832&quot;&gt;metadata&lt;/span&gt;:&lt;br&gt;      &lt;span style=&quot;color: #cc7832&quot;&gt;annotations&lt;/span&gt;:&lt;br&gt;        &lt;span style=&quot;color: #cc7832&quot;&gt;odysseia-greek/role&lt;/span&gt;: &lt;/span&gt;&lt;span style=&quot;background-color: rgb(35 , 37 , 37)&quot;&gt;api&lt;/span&gt;&lt;span style=&quot;background-color: rgb(43 , 43 , 43)&quot;&gt;&lt;br&gt;        &lt;/span&gt;&lt;span style=&quot;background-color: rgb(43 , 43 , 43) ; color: rgb(204 , 120 , 50)&quot;&gt;odysseia-greek/access&lt;/span&gt;&lt;span style=&quot;background-color: rgb(43 , 43 , 43)&quot;&gt;: &lt;/span&gt;&lt;span style=&quot;background-color: rgb(35 , 37 , 37)&quot;&gt;dictionary&lt;/span&gt;&lt;/pre&gt;&lt;/div&gt;" style="text;html=1;strokeColor=none;fillColor=none;spacing=5;spacingTop=-20;whiteSpace=wrap;overflow=hidden;rounded=0;" parent="1" vertex="1">
          <mxGeometry x="35" width="392" height="234" as="geometry" />
        </mxCell>
        <mxCell id="FxR3PeblLHVCR7jEJt5I-5" value="&lt;h1&gt;SETUP SEEDER:&lt;/h1&gt;&lt;div&gt;&lt;br&gt;&lt;/div&gt;&lt;div&gt;&lt;pre style=&quot;color: rgb(169 , 183 , 198) ; font-family: &amp;#34;jetbrains mono&amp;#34; , monospace ; font-size: 9.8pt&quot;&gt;&lt;span style=&quot;background-color: rgb(43 , 43 , 43)&quot;&gt;&lt;span style=&quot;color: #cc7832&quot;&gt;spec&lt;/span&gt;:&lt;span style=&quot;color: #6a8759&quot;&gt;&lt;br&gt;&lt;/span&gt;&lt;span style=&quot;color: #6a8759&quot;&gt;  &lt;/span&gt;&lt;span style=&quot;color: #cc7832&quot;&gt;template&lt;/span&gt;:&lt;br&gt;    &lt;span style=&quot;color: #cc7832&quot;&gt;metadata&lt;/span&gt;:&lt;br&gt;      &lt;span style=&quot;color: #cc7832&quot;&gt;annotations&lt;/span&gt;:&lt;br&gt;        &lt;span style=&quot;color: #cc7832&quot;&gt;odysseia-greek/role&lt;/span&gt;: &lt;/span&gt;&lt;span style=&quot;background-color: rgb(35 , 37 , 37)&quot;&gt;seeder&lt;/span&gt;&lt;span style=&quot;background-color: rgb(43 , 43 , 43)&quot;&gt;&lt;br&gt;        &lt;/span&gt;&lt;span style=&quot;background-color: rgb(43 , 43 , 43) ; color: rgb(204 , 120 , 50)&quot;&gt;odysseia-greek/access&lt;/span&gt;&lt;span style=&quot;background-color: rgb(43 , 43 , 43)&quot;&gt;: &lt;/span&gt;&lt;span style=&quot;background-color: rgb(35 , 37 , 37)&quot;&gt;dictionary&lt;/span&gt;&lt;/pre&gt;&lt;/div&gt;" style="text;html=1;strokeColor=none;fillColor=none;spacing=5;spacingTop=-20;whiteSpace=wrap;overflow=hidden;rounded=0;" parent="1" vertex="1">
          <mxGeometry x="443" y="8" width="392" height="201" as="geometry" />
        </mxCell>
        <mxCell id="FxR3PeblLHVCR7jEJt5I-7" style="edgeStyle=orthogonalEdgeStyle;rounded=0;orthogonalLoop=1;jettySize=auto;html=1;entryX=0;entryY=0.5;entryDx=0;entryDy=0;" parent="1" source="FxR3PeblLHVCR7jEJt5I-6" target="YeY76Y3rS6GUA46lo31o-11" edge="1">
          <mxGeometry relative="1" as="geometry" />
        </mxCell>
        <mxCell id="FxR3PeblLHVCR7jEJt5I-8" value="CREATE CONFIG" style="edgeLabel;html=1;align=center;verticalAlign=middle;resizable=0;points=[];" parent="FxR3PeblLHVCR7jEJt5I-7" vertex="1" connectable="0">
          <mxGeometry x="-0.1751" y="3" relative="1" as="geometry">
            <mxPoint as="offset" />
          </mxGeometry>
        </mxCell>
        <mxCell id="FxR3PeblLHVCR7jEJt5I-6" value="Periandros" style="rounded=0;whiteSpace=wrap;html=1;fillColor=#6a00ff;strokeColor=#3700CC;fontColor=#ffffff;" parent="1" vertex="1">
          <mxGeometry x="126" y="539" width="89" height="30" as="geometry" />
        </mxCell>
        <mxCell id="li85Y_7yYVKvvSDK2la5-1" value="" style="shape=image;verticalLabelPosition=bottom;verticalAlign=top;aspect=fixed;imageAspect=0;image=https://miro.medium.com/max/6844/1*BmvPfSSm2G8C-khX1rhCGg.png;fillColor=#F2CC8F;strokeColor=#E07A5F;fontColor=#393C56;" parent="1" vertex="1">
          <mxGeometry x="81" y="835" width="148.22" height="77.24" as="geometry" />
        </mxCell>
        <mxCell id="li85Y_7yYVKvvSDK2la5-12" style="edgeStyle=orthogonalEdgeStyle;rounded=0;orthogonalLoop=1;jettySize=auto;html=1;" parent="1" source="li85Y_7yYVKvvSDK2la5-11" target="li85Y_7yYVKvvSDK2la5-1" edge="1">
          <mxGeometry relative="1" as="geometry" />
        </mxCell>
        <mxCell id="li85Y_7yYVKvvSDK2la5-13" value="CREATE ROLES" style="edgeLabel;html=1;align=center;verticalAlign=middle;resizable=0;points=[];" parent="li85Y_7yYVKvvSDK2la5-12" vertex="1" connectable="0">
          <mxGeometry x="-0.0364" y="-2" relative="1" as="geometry">
            <mxPoint as="offset" />
          </mxGeometry>
        </mxCell>
        <mxCell id="li85Y_7yYVKvvSDK2la5-11" value="Drakon" style="rounded=0;whiteSpace=wrap;html=1;fillColor=#6a00ff;strokeColor=#3700CC;fontColor=#ffffff;" parent="1" vertex="1">
          <mxGeometry x="363" y="999" width="86" height="42" as="geometry" />
        </mxCell>
        <mxCell id="li85Y_7yYVKvvSDK2la5-15" value="API" style="rounded=0;whiteSpace=wrap;html=1;fillColor=#dae8fc;strokeColor=#6c8ebf;" parent="1" vertex="1">
          <mxGeometry x="58" y="523" width="71" height="23" as="geometry" />
        </mxCell>
        <mxCell id="li85Y_7yYVKvvSDK2la5-16" value="Dataseeder" style="rounded=0;whiteSpace=wrap;html=1;fillColor=#bac8d3;strokeColor=#23445d;" parent="1" vertex="1">
          <mxGeometry x="63" y="559" width="71" height="26" as="geometry" />
        </mxCell>
        <mxCell id="h98c74GSFJlit1nfgGsa-1" value="" style="shape=image;verticalLabelPosition=bottom;labelBackgroundColor=default;verticalAlign=top;aspect=fixed;imageAspect=0;image=data:image/png,iVBORw0KGgoAAAANSUhEUgAAASwAAACoCAMAAABt9SM9AAABFFBMVEX///8AAAAxbOT///3///xQUFAza+TExMT///ocYt7J1+6WlpZWVlb///j8/PypqalbW1tjY2P19fVLS0vd3d28vLzv7++IiIgwbeLOzs7V1dX7//9ycnLm5uaampogICB+fn4tLS03Nze+vr49PT2Dg4Ozs7MPDw9ERET/+v+np6ccHByYmJh3d3c1aekwbt3e5PZUg9r///AkZOh6muJljeHp7vmMqeIjYtivxOmJpufD0fFLfN+ww+xFeOGnuuyfuuHe6+96leN3nt5lh+NRgOasy+uQq+ns+PMuadHB0PRsk9+bseC10u2jvt7V4PhKd8kzavE3ZfIocNJegtDY3PZYfNhZkNyOr93V6vaOpe2BodvuQOadAAAUjklEQVR4nO1cC1vbuNIWkeNIITIkBDBRwiVAIFDsgEliCoSyvYVLl9NlP07Z/f//45uR7fiSQOlu97QLep99to5i2dbLaPSOZhxCNDQ0NDQ0NDS+MyiD/wyDEoMRS0pC6Y9+op8Y0rAsKm/6h6+PJbPaQpP1CNqWkMdXnPsOPzkdaqoeBZXH77iZs03bdPzBWeVHP8/PCQr+SQp5eodU5cxcDghzONBFLYsw/PZHP+FPBMYoa5+d+LaTS8Dhbn9oCMkMzVUCksg3t9xxTDNJFk5G+/U5JcyQP/oJfyL0+txzTNe07SRd6L3AvN6eE21aAJAKgtHzvu+nbSoFh/9yI6gFQoK+aNKkFKTzh+88SFRoYn63yEBJAGE/+ol/ICi9ees6tpuxq6yZwWfv3fEQZP2LJIsRA4OZmysTrMp27Fwu5sfk703TzpBl5/z3p0PU9JS0ycvy9+iqSLHrm2NWZDv+h4ObwQQXZvOTXyURRIoXNhuFYRzvg1awc1lWTPNEWAcfJ5BlmqZnn0mjbUnjRz///xTydOA7DkiDsVXQdAeWPPjoTyILpZf/cWi8IK4ka58OOI7ddcYVA9AxpOxwkpIA/2ZDD//1uYDZ+DLAzjEEfAjgs3rU2n/4hJzt+5fEYj96GP8b9E4eUaBIVodYg0ekl+24vCheiIq45mNePUnFZ7/IpPvIGejnuoI8f9MSFqu8n0gEUmDb6LMuekS8M20TV8qJrgsiIP/8BUQ+hkXPJyx0yqTAgTuc88H1ARGXF9zzzPRiacafTH5Mnv+SSC3j0ksZyejQ8Tx7//ReQhDIrANG7z9ccc9NKfkYTv8lTMO2eM1jU7F5LtgZhQkHJtVDniCggVDIAtJI7/SER5EiSIbBiDrb3Leev2UZxOo6I6v6dP4B40KYXi53r4cCJimVlrAk/IurHWPy1PUdG/yX7fBfZe+dGZHFhz96KP88BOmNto6dQ1j/ixeOCYT53R4alWURwQgDESWowQRtG6x36OeQLv8DEQenfERW8UcP5Z8Hpcd+aB2m/U5CUHx5YZs5/sU6kIQJZsibDx1BWeXoZmhQgzKQCKfccU3/DbGI0R85Oe/Ljx7K/wDGWeyy+J9Dgrbl8VNmWBYz2M0fg5x3TAVdcLl9eCyFtAzJij7nR/SAyet4IXW6xrPPKzJy6EReGjzV7QdKrN7xsSHalJHOOz/nmvyGCFlxQWb5d8dgW0yK4odzZpFP/xlFSbbpuGClWbYWCq3V1ac9SKMwU9/53qP7zpCWm1gLTYe/gxVQGBRz0X3fUVKrA16+MsBshcm7aHu4+y6Gb7kTCy0Iim5INpu4PQXIP+k58Myp6X9ggN8VnUQMDWO3nbsKBX9uid7vHpIBnrwHEwwjaZTw/uCGtcHpM9n1YUkcGaXr8NMxsvLIQOlJj/GvIAu8dSwzTRtCQP9MGIYQxjUH5lBP+GBrhuyagel5XaHqQz6lNyrA6n6hLDMPf0ayrIXqX65CoG89Ozlq0/aPBfiotpCXwJxrO6ZboZLSKzzL9fwvw7bqeG5/Tot50wUZlr74T0dWY7E8tzVV/cv9b1MG4rj8yoBpJqy2EL0r/hmc0UApUtz9c/hJUaDwwgnXz+6BgQVmdgB/OrIK6jZ/maxKdshmR1gwZiFBico3PjijEyTLwKCIH1ZghhpIFbWG2V0b+1JkQp7nRJY0JL1Mp54d+xcCU7C9PwTBTgm7gVjwvcBkap87/iUxLAbHb4vCYvQ6w7PXz248PCeyiGUYwEFqyPyTYRjki3fbOWhLQQzW/88nYEbSzt3VOZZNgjPr8ndMGOzcS3GVc+6yJRDPjCxykt4uNi9g+omK/Tl3URQSfBc1BGsLiBJBLQisLmW9Oy/HixYsfXe5lIt37N7DZNUWpwGLC4SofwuqcQYbAyWqRrG6M7s7tVJabkAkFT0iqezMwldb5daojVSWXtU3dqem1srTVVzfWtP17S04abcMXRNY2Clha33dCi8YkLW3iFgeMbi3i3JweSF7z6mt/GJhdFfKJM+lMoXOWwIuC+WE6V+KtsDqBwnhNATRsNSBn6edEwiinY9Utsmpn9o4Nf3ig6thQz3l1CuSsiEcytR2TNYIy/E1ZraixuZS2FROn9lKdX0Vd90ZNTZrJEFW2BY0VefG71rYik8bmaFhFHkuBQj5wFf9okgAwYUqQUqLqIplEGWU3gxATdjg9AnqWSeV1feuH/JZlQ11480RLQFZ6s83N4GsqdXob7yZbA3YspJNMJaZdNfF6O57412TZG2MtUR3XUo0rY1EmUHOsmQVQVNJlcoxc7yP1meBabFgekEIrQIcUKcd/JhZHMzuQ6JUmdBUPabla2RNzQdXWE63LmTJ2loYI2sqtKLpdGtlIlmN9EkzqudaomV2NBhBupnln5+DL+8FMtW0+SVu0oOCeN3vHWCHc99VIVAOvyHUTU9Dc9CbTFZd3bdkfZ2sufJG8i8ajqW+PN1UB6sJspqz+TU1h2fCj1HXMkl0LS9PB2NfnEhW0KU5vRxO7diwVqZ3dqbLiTVHyNtMOtAHOcE6tmubKhA8w1Jc1ve49zvWybB7L4fFgK7tv8Hu71JUg/i/mUjWYvBwoat8hKwynlLdVcfr2BoMQU0hRTgaUkiW8k2V6oisymiYW1bctRAfWmR8NVyK/wTz6rA1OimwTysOjYxOJrWFIQvMNe+zaXLPfn+GDNEiMuRd4+FBsWt7nvmbwz/ixyvHTpHFj1JcBWSVg8GsRcvKI2RNJ0ZQH7UGTmhhN+ItQZZCTFbo4ZCMSrLriPIsWfXEk+1FVhmcNE8yoEdeNmQBssgx9+3B4WUPdAOcxG4wY4h7Cpi4MIbF/t0t99CdkW7KLiHsPpxAVmAozdGf6KtkBXNjOzs25feWR2TF8yNBVmEyLeo+MxPIUs+2GRyv4/EKHFTVSVN7aTlmkEOeyWz5Fqj6m9/7/ydxW8ZAzmXlwjExhY970Izhatk5ujrDC+w76e7OXbqoLT8VIebqCWSpabMyct35EmJ2JZoxj5AVjBPn3k6ia2klsrIMWYFfawYnKQmxhc3b4UOXEtIOZNadF4/WRcXl94ALLLeioOMNIVCKsct9PjhjEgzNsoLdUBqIvAFuceXAh+XC5JgLHj6htWKy1mKx+HWyAh/XGFvQpoJp8iSyVse67o2TVRs7aauSal5LTMbeRWJL2fEcx3tboUZIJMgrLIGUUhxYxaHRZhAzMpCowFhE9hvf46YDsiu4jGn6x2B8k8gKXPO3kpUSWd9GVn2sa32crKWxkwJxUlsZfd4c3ebYHxkWv3jfPewXD6iaekQKpUMrQ0HbBFUpRDxSyJ6EsIdGc619cPPm9dX+re+4ynkpZZYU8YqsZuC0nu7gg4HuLoyprHDETyJrcazr5jhZ1bGTgpWUWDtrUctMZBl9L9qA51+GFvgjUF4s2GaR95dnVyeue38A8p0hiCXvfPfk8LTYCwmBLwT6sU882j90uu3klpYiazZUPJG824oG/SBZSlOh0ggCmVS4Zz2RrAldSWRKtehjsEwukklYCpVXpHjIu1CBQ9QCFsGoAHclIHoeXg08D2aY6f52BOE02hJuct1zGzUF5/4+RNloadKA2crEL9E6YdoLMuEUQ50V+oDFBBVbj5A1P7Kh6sgkUnw9haxa5qQkWXESST3L2gPbzI1ACIf+o+e6oVbPgWMntHfWvX3bwbLl/+KrKMiifU4tlY+2JLPo+/DlFNPu4bbW4YX7ZxG+PLgbJbV5kYyTFYW6wVZD4HqV5yxPIquREKVBvyjAtRpPJysw4KkdK9U1MPJt1Yj/C1aQfGSAC+oiVuRe15PW2bFHcbD5+4c3//W56fK+oPLghjuKRueQWWBBw+N7iirrFINBrFHuU1AQRTA9j9/1j674KMsDsnQCWSFBK+opQuZWd2aW1zJklWZardDZNNVlwn2D5nSr0Fpe3Zj6BrJehbNoer7QerXaDLqSwHPPLe9M721X4tBwb2a9tbNZCv5CjanZ6UKj0ajlU2S5n4NRgmb47CM/jpMbDEEkkCsnSBPeUEtIeuXd9vBtaYmOHE52Qa8K0O/IteN5TmRY0OHImESW1RxNLVJJ7H9kyEogsEJrLd3aeDpZJHOb4Nyk36/GlEZQEzS9RkYKUd45drbcyvaOwJiMc1Un45zQNrNIkTv+R/DkBuk7mFnkH9BT3fvZ3Xvo7XbGdJbaz6olKEjvP00mK5p51fSQC99AVmapC7x6JdGiQs5y6iTUYpk1OFoNyZGXkeA5JKjCJGXHIKBsfkqlsNiJgywAawcd37R/44ewFFiim1X/LhjWYeod18ROaSCZAv2QfpqNCWS1RpdozCXbZ76BLNLYmHDJBIXBFVLCdxdbSsmW+Daym9nOQjfFv4CmssgbmJYXklJBjnyMDQ+lAF16Zdp+F3+ygH7yzSzR5udbDAAmkkXWdldWVsJHrsWSMf8q2JZrra5FTSvTqeVpfkTX1mI1IAuutBVvpj5EFlx01HV3MXLilWgm1sON10Ys9stq2SnE1laP40NqDW+VE0pMJZh+/EZAaENPOX99YAljOAAbA3FehA/s2LOvDEMK0RtkX3I1HdO/wdwGeQqqS4XCUiZzsFArzK8vTVjIl+ZbrfWaNf7F1xF0zd5nqbaQbGgUWq355I0bBeyWfjxK7j13vMD9BIQBEFO8uKcw9z4Gc9Xcx3Ti8O5aUmlR+Ys9RpbpHz3n98xBrX/gY2yZubuKsLA0BOyL3dvBWmfyS1BgokeENDCLmH3JB+bnH/Q5vzhAWVv0vWxtOxjJ/lC0wYkzmI+HXLFi5rzbCrCE0RCVX7CIzUzvKee6kj7zGlyDdpXSTFsJ/71nGFgTw6zj13eu73P75Aprl/FXaZj8E0LnjDWa5qDynCdhADYcjL3li3HOJwprHtiKEKzS6/UquDCihGKisw+yYuxFO7/zzM0KIFj7HsuKsk7e5H9WMP5rQ7gjJc5YRtq4Hokz33bGXh3ANyyeP9pAyCdujy2Jpvkeoh5GGW0bas9PGmGi9bWNcVE2hXZNnrvDipCth1FkvRNtcXw5xG13hj/gQKnV+QCMfcyGOVh9eyXFEwXWvx0QN2ffdQKBeUnEqcvdw+vLDvisXvHo9Xufv2X0fMwMzdygwtovxLJAdZ9k5QO/khBNO85n3OzzbJN7HCn0ioL0x94ic+8xfH72a6ECOKNznpFNbkfQI3xLJ0xFQFDkYH3uIbXkezPerDDxdYxLcGrsZXClUOQp6cTPwFa6n7OLnmMOQMLfc2ckzIA3/uWFuKsR2FnSb5vmUJCem13zQLx6x8wQ+59H9aS2411BBPSXgtx/LSx2yJNk9RgFQTW2NejYXfBNd7n4G3swJC/tJ2mEIe/MeOPU7t78ak94J9+x/dfFfujg1H68e44Zjpc1Dy160LlIvPPs+d4YUwF+8+PXyGzXPqYviygEhdgGnHyczc898EMOdm7kr1zT4ddUfH9/9Xev+E3vm/yFm1HLkEbs5E17fApG3zjxSd5bQ/xtMbpYmsPR7ZXyr8hsqYzHpVKdrOdnZ2fr8zCWKh7NzsY14tOlvNrFXFJf7C3BKaVSlFiuLG6sba9WiTWneuUXqupgtUbITj48q1qaLc+X1EX3yA4elKez2evH6aLk4NCL3/N6gKz4G5i0d9/jNzjLKuu7qlLDQY0DwUKpsFS0bI1yU1EHTNGs4sF8+MUmZo/K4ZfhXr4VlZ42oqKYZZVjUoYEN1sNk0zNqPxkqzb2ZI+BkeHAdrJ5iIcoM03bP/8evyqpyNoJCm3CTCwQh2SVMblQQ7K2ms3mWtQBaVS1QUBWfhqrqWrVEVmLWA6/AvxZQa+VBaBoTtWkNjCDgimTyu7UVBXIWoGLzmKPOt7oaS9GRgAVPvTdJ5Nl++Dcv4NmALIqS1NBZi9N1gxyOI9k1ZMdVH5/JiBrURXdTMdkNZWdLlWQrKAWpabKJdYw67MeZN7msbCwFWUnF7FWAGtEUkmMr4ASg4CTn/SzUBNgm/hiIvsO0TOQhVzNo6tNk7WDhZ7VLFnwsbSlyigDsoDQxZgsMJ7poJYhQdaqKkIpqPR9VWUG11Nkzatk5LeQhZDGqZfDHyd9DBD1YN7r8OuXexLKqu40eislSdbammID2Fmrl8ub8fmYeKwpslYXCtB5PSYLS7DWdiqKrJUyAMmqL7TUNMT87qLKLqrE+AZcdRnJmmlsfus0RLKEAMlpf2Uq4q/U4LbEdyNrKqowS5OF2GtEDj5IXeOEWcOmvdjBb1sxWUG/laXRuwUkdvCq8womoadHVQTlUf3Dtzl4gCUZOx14Pv8K/Iu+bH+nH58BsppR1WmarPzqNrpyYGZltpTfC04H41itFlYwBx2SVV8gCbLIghp9A8jaLZVK+VSdBTq41raacS1Vepufjsr0v0k6KKjVTXaOi19BzzLYQfvvE4UAsrD+A0uAgKWtBkk4ePyyVUv5rGaUW58JpqEqqkqSBXRtoB0lfNbeXFQ4X1NzHi+X9Flga1tL5N8AXA2xUApF55piCP/oIVngS3ZSZMUFQSuhg0fEZM2hNqhnyNrExS6os2hGMy5JVqEV/pV+eiidhRzUg5qW3RWlM4GsegsFY62G0zBS8HD2cgEAc6m2Pk4W9NpaxXqQgqUmLyh4tRoWIqeErmouPGgqBa9Ww71Urf7Pi3LkQmDkkf4GzxW97FVPKfhG+C+eXy+MkxXV55RGDj4gCylRtmNFNhZevxlKh+3kG2A/LzbnNvBv+mou3yyQymZzd7e5B+zNb+cBszCwmjrKq1LQ1vZcMHkWSvn8fPSBVLfnQmWxVG7urmwvW6SyEfRaqG7MYZVVfW6ujldY3i4pEwquP1eHhu0CvqSZ35gZe7afDdmo31poPLwR8JQtgkrjm9Tly9rk1dDQ0NDQ0NDQ0NDQ0NDQ0NDQ0NDQ0NDQ0NDQ0NDQ0NDQ0NDQ0NDQ0NDQ0NDQ0NDQ0NDQ0NDQ0NDQ0NDQ0NDQ0NDQ0NDQ0NDQ0NDQ0NDQ0NDQ0NDQ+Ofx/94h/02098MPAAAAAElFTkSuQmCC;" parent="1" vertex="1">
          <mxGeometry x="60" y="718" width="152" height="85.12" as="geometry" />
        </mxCell>
        <mxCell id="bqaqiRXCgSc5tPmss6hg-1" value="" style="shape=image;verticalLabelPosition=bottom;verticalAlign=top;aspect=fixed;imageAspect=0;image=data:image/jpeg,/9j/4AAQSkZJRgABAQAAAQABAAD/2wCEAAoHCBYVFRgSFRUYGRgZGBwZHBkcHBgZHBoVGBwaGRoaGBgcIC4mHh8rHxgaJjgmLC8xNTU1HCQ7QDwzPy42NTEBDAwMEA8QHhISHjQhJSsxNDY0NDQ0NDQ3NDQ0NDQ9NDQ0NDQ/NDQ0NDQ0NDE0NDQ0NDQ0NDQ0NDQ0NDQ0NDQ0NP/AABEIAPAA0gMBIgACEQEDEQH/xAAcAAEAAgMBAQEAAAAAAAAAAAAABAYCAwUBBwj/xABEEAACAQIDBQYCCAMFBwUAAAABAgADEQQSIQUxQVFhBhMiMnGBUpEUI0JicoKhsQeSwVOiwtHSM0NUY7Pw8TRzg6Oy/8QAGQEBAAMBAQAAAAAAAAAAAAAAAAECAwQF/8QAJREBAQACAgIBBAIDAAAAAAAAAAECEQMhEjETBEFRYTJxFCJS/9oADAMBAAIRAxEAPwD7NERAREQEREBExJtqZwdo9rMNSuobvGH2U8WvIt5QfUwO/F58/wAX23rNcU6SIODMWc2/CMov7mcTGbYxFTz13t8KnIP7lj8yZPjVLnI+q1MSi73UepA/eZU6isLqwYcwQR8xPiGIw1M+J0Vj8TDN8yZ0uxGPOHxC2JFOq4Qpc5VDeFGCk2Bz29niywmcr7FERIXIiICIiAiIgIiICIiAiIgIiICIiAiJDx+NSihqVGsB7kngAN5J5CBLJlY2x2tp07pS+scaEg+FT1biegv1tKxtnb9XEErqlPggOrD77Df+Eaes5QAEtMfyyy5NekjaO0K2IP1zll+AeFB+UHX3vImQCbLzBwALk2HOX1Iytt9hmms6rqxty5k8gN5PSamxDNpTXT428vsN7ft1mS0QPEbs5Fsx5cgNwHQfrBr8tLIX1cWUbk58i/8Al+/DXjmKozjzIM6/iTxL+oElNNTi4K8DoZVaV9twlUMiuNzKCPQi83yv9hsV3mBw5JuVpim34qfgb9VMsEo6CIiAiIgIiICIiAiIgIiICIiAiIgaqrhVLE2ABJJ4Aakz5jtvajYioahJyC4ReS87fEd5+XCfSsbhhUpvTJIDqVJG8BhbSfHMfhq9Go9Cq4DKbqQls6X0dSWOnTgdPWcdbUz3rpI9JorYlE8zi/LefZRrIwpg+Znb1Nh8lsD7zOlTA0VVUdAB+0vthpsNV38i5B8T7/ZBr87TxMGL5nJcjUZtw9F3e++SESZkSdI21uZg0yaYOdII0O08XSDNdMamVXfQP4Z4m9GtSvqlZmA+7UAe/wDMWl2nyz+HuKyY16Z8tWkLfjQn/CZ9TlG8u49iIhJERAREQEREBERAREQEREBERAThdp9gJi6WXRai606lrlG/qp3EcRO7PDA+I1aTozU6iZHQ5XW99eanipGoP/iZJPofbDs936d9TH11MG24Z03mmx/UHgehM+dob6j/ACPoQdx6S+N2wzx0lIZkZqpNNt5dm1uJqcTewmp1kERmEwA3za4mFpC7DCYs0cThqw0CVlDHd4H8D39jPugnwpcC1c9wo1YWJ4KvFz0F/c2EvmG7aU8Opw1fvHrUmyXVCe8QAFKhY2UFlIvrvDTO2b02x9L1EpVH+IVM+bDYhdf+U2nOy1CZZ9lbUpYhO8pOGXceBVhvVlOqkcjCyfERAREQEREBERAREQEREBERAREQMSJ8x7ZbM7jEd4otTrknTctYasPzAZvUNzn0+cvtBspcTQeiTYkXVvhddVb2IEekWbmnykGxm8GRkzC6OtnRijryddD7cR0Im4PNZXNZpk5mJOkwdwN5kzAbPq1/9mlx8bXVB1zcfQXkZZSeyY2+kBpvwGzamIPgFk41GBy/l+M+mnMiWfA9mKaEGqe9fkRZB6Jx/MT7TvsgAAFunT0nPnzfbF0YcX5cvZ+zEoplRTc2ux1dzzY/sNwlQ7aBBiUCHxmmc45AN4CTz1eWPtB2iTD3poM9Yjwp8I+Jz9lZRKVBizO5zO5LO3Nj+wG4DkJXixyuXktnlJNMGoWUlc2YAkHMb39zYy8fw2rfX4hM3+7pOy8MxNRc3rZQPYSpXCgsxsBqTyE+j9hNjijSasbd5XIdrfZQCyIeoBJPUkcJ0Vnh3drZE8nsq0IiICIiAiIgIiICIiAiIgIiICImuo4UFibAAkk8AN5gUDtxsQrWTEpYLUIp1L3sG3U305nwn1WRsJ2XufHVJ6KuTTlckn9pz+0+3fpjWUkUB5Rqucjc7fuB7+nT2V2mp5FWqWV1ADHKSGIA8QIBGvKUz8pOkTwt/bt4HYlCmQy00JH2m8bezNe06lSottLkysV+1dJQcodyOSsL+hYAfrONiu1eIcZURKQ5nxvb08oPzmMwzyWtxn3XHHbRp0U7yq6ou7xEC55AcT0EqO1+1Lv4MPdU+Nh4jf4VPl9Tr0ErrUszmo7O7/G7Fj+Xgo6C0LVv5Bm+9uQW+8d/tebYcMn8lMuX/lkUCgsTvOZnY3JJ4sTNq1FRc7GwPPT00kNGZ2y00as44hGZFP3VUE+9ieoll2bskUmFSrh8RVqDUMaThE4HInA9TczaWRn4291hsnYT1WFaqMqDyUyNSeDv15Lw3791kobOenrRqGmb30AKE/eTcfUWMmYLFI+isLjepuHHqpsR8p0VQS0kqlyuP6acHtplsuJUJfQVFuUJ+9fye+nWd5SDrOM9G9xwPCc6pj3woCohqI7BEQsF7t2NguZvsHh8J03EWrljrtrhyeXVW2JxMM2NYAuMPT+79ZUPuQVH7yWMUyf7VQBp41N1udPEDquvHUdZntrp0IiJKCIiAiIgIiICIiAiIgJXu2zMMFVychm/9ssBU9smb2lhmFRQQQRcHQjpA+DM9mzEEgqApXWw4i3XnJSDTlLftrsrQOIp0qOaldXqPlN1CCyqqo11S7NfQbkYenp7Ep/xFb/6f9EvjusMtY3W1Jeq17KjMfYD5sRMKtRh5mRL7h52PoNBf5y+r2Ko/aao3q5X9EyzpYTs/Rp+RFU8SBqfVt5k+NV8sXznDbLqVbMEbL8dXRfy0xvPqB6yzdnuzS1mOds6UzlY7gXFiURenEm++wsbkWPH0lp03qHciMx9FBM4+3kqYbY7d1cOaal2XQhqjA1X6HxMb8JXLprx6yW3BYnDKe4ptTUj7ClQfkN86Qn5RxFdVFJ6LVe+8TOTZQr5vB3RU3tl334z9QbGLmhSNTzmmpf8RUXlJWtj3H7Np1gM66jyuNHU81Yag/vxnDw+JdKrYep50AZX4VKZ0D9GB0I567iJaZwu09AZUr7mp1FF+aVGFNlPS7K35BLY3VZ54yxJU3F5F2jhVqIyNuYWuN4PAg8wdfabcM3hnA7R9p1wzd0q5nyhtTZQDcC9tSdDpNrrXbmm99LRsTFGpRUt51JRuroSpI6G2YdDJzoCCCAQRYg7iDvBE+X7A7YutazqpSrVQMAGBUvkphlJJvwJFtdZ9TmFmnXjdx817N7exSbWrbLqMalJQxQsBmRAA6WbewysFN7m/GfS5xNnYemcViaoRc4KU2a3i0po+XNys66ek7ciLUiJGxGKRCqsbFjZRYm50HD1ElCTERAREQEREBERAREQK61O+LqueFOkg9jUY/8A7Hyk60juLYioOaU2/wCov+GSZth6cnL/ACpERLs3P25hy+HrU13tTdR6lSBOjs8JVw6ZlDI9NbqdQVZRoee+eTmbHxH0eocJU0VmLUG4ZSbmnfmCTYcvSZck+7o4cvcY4bsHgKdQVVw65gQygliqsNxCk2FpZ7RPZm3eSv8AbGp9QqDzVK1JVHOzq7f3UY+07ruACSbAaknlKZicZ9LxCsmtGlfI1tHqNoXXmoGgPHM0e7pGV1Np+IxfdU89rklUVfid2CIvS5I14SPtDsZTr+N6r96bZnFsthuUIRYKOHHmTJO1MKz0SqWDqUdL7s6OrqD0JUA+sxobZxDv3K4Xu6mXMS9RCgW9iwyXZteFh6iTyeW5pnxSWXftHwfYTDJdmzu32WZrZDwZAtgGHBt45zdsLtCXorTPjxKu9IqOJpO1M1X+BDlzXPoLmwnKpbWxteuuFWrh6ZdKzZhTdmRaNXuWy/WWZjvF7W5G0uGydmJhqa0qYNhvJ1ZmJuzOeLEkknrKTba6nTLZuE7tbE3djmdrWzOQAT6WAA5AAcJOnM21tHuKRqAZmuFVRclmPQamwuxtwUzDD42oyB1FOqhFwUbKSPuhrqfdhLIdWQtpVSqqdAM4DMRfItj4reoAvwzX4RTxyuGCauoJ7tro1+FwRcAnTNqPWNm1KjJequVrnhl8PC65mseG/hfS9oGeBqllJJvYkBrZcyjc1v0vuNrjQyXEQEREBERAREQERPDA4u0bLiKbXHjRkI4kr4109M8kSlYgNUr1augrU8QchcmyqjWFO41VXTl8d7HdO2naOkule9E7vH5D+GoPCfQkHpNsep25OSy5WR2omqhiUcZkdWB4qQRb2m2WUJrxFBXUo6hlPA/05HrNkRSIdJa9IWSoKijctW+YDl3g1P5gT1mDbWxO76PTB61G/wBE6E8lfCNJy5RwsRha+INsQwyf2SAqp/Gbkv6aDmJ08NhFQAAbt3SSokzGRW53L2xKyDjsK7MtSk4R1BUMVzqVaxKutwSLqDoQdJPMxaLN9UmVl3FV2JsN6GMpVqlbOzGogAXIqowqVXspJuWexJvwEv8AK7XrIlakzMFVc7EsQAAEy3JO7zTs/S0NM1VYMoUtmUgggC5sR6THKSXUdOGVym6gg95iGP2aICjl3rjMx9kKi/32ntfZSkl0ZqTnUslhmPNlIKsepBPWQMDtAqvdomep56hJyotR/GVL2NyM24A2GW9riZ4nH1UUu9SiijUkqzAfmLr+0r5Se2nx5XuNe06GIHdsaiErVphStNlezOoYZu8IClb5tN19OVmld2XiziGpMw0VTVJtlBzZkpHKSSMy5nsTcaSxSUdzqvYiICIiAiIgIiICeGeyJtHHJQptVqNlRBcnpApHaagPpqmk5pu1ItVsAytZlSlnTmfGLggkIOQmzCM5BWoFvuuvlcc8p1Hob7t5mvAU2qM+KdSHrENY70prpTQ+gJY9XadNEnVx42Y9vN585crpx32RTzZ0U034tSY0yfULo3uDJdDF4mnazrWUC1qgCP650GU+mT3EmtTE1MglrhGc5cokYfb6EhKoak50Ae2Un7ri6t6Xv0nXVgdRK3WpKRlZQykaggEH1Eg4d6mHYvRLOgGtAm+n/KY6g/dJsekpcbGuOcy99LpEibNx6V0FRGup9iGGhVgdQQdCDukuRF6SNtDE93Tepa+RGa34QT/SSZE2rSz0aifEjr81Iik9qTjts4lPGa9jxUImQHiAPNb1M5zdrsTVuhqooCFy1NQHsCBYliQu/lIOPxa1UUG2qjwEEsdLkZBqbcpDpdm8RU8YK0lIK5St2Kkg5io8u7d79Jlle+m2ON12zXab1XYVHFQI9lLnMyoyKRZbBc1z595l+7MvfZ+KI3Z64X+UA7vvXPvKPs/YRAVs4s7qL5dLM6optm5W+Vp9Wp7HWhg6mHQkkpUJY2BZ3DEsQNBqd3ASuXrtph3dz+nI2Zs4MatTvKi569W6q9l8Dsg0tp4UG60Y3B0lOTIWsMzsSzuEJyhULEkO7eEWt9o7xN+BZ0VxkbV3qK58KFKpNTMXOigFyCN/hOh0vK2JhO8IqEkorZgSMve1f7TKdQijRB0vwBmMxtvbqucmMkdTZGENNLvbO5zPbcCQAFHRVAHtedKImrEiIgIiICIiAiIgeSldrG7/ABFPCHyU1Fd1+NsxWmrdLqzewl1lIcE4zFOeD00H4VpI4/V2luObykrLnyuOFsS0FplmnnSY9Z3PJZsZgRCmYuTvgR2a4vI9DEKSQCLg2I62vb5EGc/ZeNvnoWZ6iO4KqCzZCxZCeQysupnmCwpGJqO6MhCoQrZdM4KlgFJ3hANevOY+c3JHR8dktvpPw+LGGrh7HJW8LhQSRWUEo4UC5zKCD+FeZljXaKEX8f8AI4/dZU9uI3dsyedBnX8aeNf1FveXrZdYPTV13MoYehF5z83JcMup7dPBjM8e/cQjtBOZ+TX+Vp59PU7lqN6Uqh/wztxaZf5F/Db4cVdfB5iSuHYE72IRL+tzm/SaMZRp0EapiKioqqWKoSWKqCTrbMdBuUA9ZaZwe2JUYSqp0NVRRuN/1pFPQ9AxPtKfLlldLTCY9qZhMGXFCklqbPUFQDKCECsaxUqpF1FguhG8S4bW2u9Kky1EUu4yUypOV6r2VVIOqG7A210B10nJ2Fsk1neqtR6YpgUkZMvm0aobMCrDRF3aFWnm0qbpWao9Z664WmaioVpopxNS6UUBUC7WzbzpnQzbPe9T0cU/13fd7dDZGF+kEo5zUcMVoqn2alWkozu/xBWsoU6XViQdLWyc7YuA7iglK92UXdt2aoxLVHNuLMWPvOjCxERAREQEREBERAREQPJUsQmXE4j7zo/saaLf5oflLaZUttkrjVHCpQuPxUn8X6VVl+O6yjD6ib46yvPGHCAZ7O15bEC2kMZ6DxngECLSJo1TXRM2ZcjquUMwGqsLkAldRbkx5AHWrtUqPXZSmcKiqSL5EzWJtpclm/STGE1sLCZfHj5eTb5srh4fZHxKgqQeKkfMTtdiyTgsMW3mihP8onDxz5Ueodyox+Sky27Jwwp0adMfYRV/lUCcn1f2df0fqpsRNdWsqjMzBRzJAH6zkdjZKT2wx2asmHQ3KeMjeO8ZSEzdFTO7cQMvMSwvtXMD3KGobXzeWn6modGH4c05PYfZ4aiuNqeOtXDOzndlc3ARbeFSoXrYKCTYTTine0ZTc024DbCUcOi08PiXUKMpWk16hOubXdmJzXNt8hKhaphaVRcr4iq+Lqo2/wCqVWRPVGNEf/HLGdnshvQYAf2beT8hGqe11+7Im0HVgpqK9J0bOtTLmVGAIJzLdcpBKkNa4J3G03Rt34nK2BtM16WdlykOyG2qsVNs6HijCxHrbhOrAREQEREBERAREQEREDyV3tYoUUaxsMlUJfmtUGnl/nKH8ssUqv8AEUH6ExW11qUWF+lVJM6u1c5vGxpzTMNNV+E8Z7Tu28fTa5gGY757aSh7aeuBa0wd7SDtHaApJnYFiTlRF1Z3O5VHP9tSdBItkTMbb09rp31anhF4kVKlvs0kYHX8bAL6ZuUvKiUTs539HvHagHq1SGdy4CqAPDTXQnKoJ4am54zrPjMW39lTHMZqh9gQvznm8sy5MtydPW4pjx4ybWa8gY6tQQq1UpmHlzZS2vBb68OEr1XDVXPjr1GHEAimPbIAf1kPFUhSASko72o2RNNWY8WO8gbyZWcN91b5Jeo7r1nxqtTpZqdElkaqRldgDlZaSnUG4ILm1uAO8dzD0FpotNQFVQFVRuCqLAD2EwwGFFKmlIblULfibC1z1MlS8xmPpfZERLIIiICIiAiIgIiICIiAiIgeSsduqoNGnQJ1rV6agcwjd6392mfnLI7gAk6AC5PSfPdoY36TiBiDcUqSstHf4y9g9UjqAAvQk/alsZuqcl1jUutiFUXPQAAEkngABvPSQ8RjHRkNShUUObLcDU6aebQ66A6mWbs/skr9fVH1h8oP+7Q8PxHj8uGvWx2GSojI6hlI1B/70PWaZct3058Ppp49+1N+mWGqVFPMo4HztaYDaF9Ajt6I5/ZZ2dktfC0XfxsyIbnecwvc9bTDZ2Jq1E7xcOSpZgpV08SBiA1mIte0jHm2jL6XX7co067+VAg4Fwf0QEH5kSVs/Y+V+8di72tnb7IO8Ig0QempsLk2nUY1f+HqE9Go/wBXmLVq40GEqH89AD3OeTcpfdTjxXH1G5UEwY3kZ6GOfy06CbvPUdj8kT+s209gVH/9RW0+CiGpg/icksfbLK3OLziyvtDxO0UQmmLu/BF5/ebcu7iZN7M7PBAxjNmeqgK7wtOm1mCIDrfdmJ1JHC1hyKOGTD5qNRcgDsUqHyOhJK3c/bsQDc3Nr6zudmcSvdmmCCEdlUjUFT4hY9M2X8sy8rbqt8eOYzcd6JjmE9kpexEQEREBERAREQEREBERAREQI2Mwq1Uam18rAg2NjY9ZCwmwqVNg/idgbgsQbHmAABfra86sQiyV7MHW4I5iZxCVTTZmJVBh0C5FGRalwCqbvJxYDduH7mwYRQiLTVMqqoVVG4KosAJLiVk0m3bAOJkGE9tFpZBeezy09gYkXmPdDlNkQNfdCZZRMogIiICIiAiIgIiICIiB/9k=;fillColor=#F2CC8F;strokeColor=#E07A5F;fontColor=#393C56;" vertex="1" parent="1">
          <mxGeometry x="470" y="590" width="33.63" height="38.42" as="geometry" />
        </mxCell>
        <mxCell id="bqaqiRXCgSc5tPmss6hg-2" value="" style="shape=image;verticalLabelPosition=bottom;verticalAlign=top;aspect=fixed;imageAspect=0;image=data:image/jpeg,/9j/4AAQSkZJRgABAQAAAQABAAD/2wCEAAoHCBYVFRgSFRUYGRgZGBwZHBkcHBgZHBoVGBwaGRoaGBgcIC4mHh8rHxgaJjgmLC8xNTU1HCQ7QDwzPy42NTEBDAwMEA8QHhISHjQhJSsxNDY0NDQ0NDQ3NDQ0NDQ9NDQ0NDQ/NDQ0NDQ0NDE0NDQ0NDQ0NDQ0NDQ0NDQ0NDQ0NP/AABEIAPAA0gMBIgACEQEDEQH/xAAcAAEAAgMBAQEAAAAAAAAAAAAABAYCAwUBBwj/xABEEAACAQIDBQYCCAMFBwUAAAABAgADEQQSIQUxQVFhBhMiMnGBUpEUI0JicoKhsQeSwVOiwtHSM0NUY7Pw8TRzg6Oy/8QAGQEBAAMBAQAAAAAAAAAAAAAAAAECAwQF/8QAJREBAQACAgIBBAIDAAAAAAAAAAECEQMhEjETBEFRYTJxFCJS/9oADAMBAAIRAxEAPwD7NERAREQEREBExJtqZwdo9rMNSuobvGH2U8WvIt5QfUwO/F58/wAX23rNcU6SIODMWc2/CMov7mcTGbYxFTz13t8KnIP7lj8yZPjVLnI+q1MSi73UepA/eZU6isLqwYcwQR8xPiGIw1M+J0Vj8TDN8yZ0uxGPOHxC2JFOq4Qpc5VDeFGCk2Bz29niywmcr7FERIXIiICIiAiIgIiICIiAiIgIiICIiAiJDx+NSihqVGsB7kngAN5J5CBLJlY2x2tp07pS+scaEg+FT1biegv1tKxtnb9XEErqlPggOrD77Df+Eaes5QAEtMfyyy5NekjaO0K2IP1zll+AeFB+UHX3vImQCbLzBwALk2HOX1Iytt9hmms6rqxty5k8gN5PSamxDNpTXT428vsN7ft1mS0QPEbs5Fsx5cgNwHQfrBr8tLIX1cWUbk58i/8Al+/DXjmKozjzIM6/iTxL+oElNNTi4K8DoZVaV9twlUMiuNzKCPQi83yv9hsV3mBw5JuVpim34qfgb9VMsEo6CIiAiIgIiICIiAiIgIiICIiAiIgaqrhVLE2ABJJ4Aakz5jtvajYioahJyC4ReS87fEd5+XCfSsbhhUpvTJIDqVJG8BhbSfHMfhq9Go9Cq4DKbqQls6X0dSWOnTgdPWcdbUz3rpI9JorYlE8zi/LefZRrIwpg+Znb1Nh8lsD7zOlTA0VVUdAB+0vthpsNV38i5B8T7/ZBr87TxMGL5nJcjUZtw9F3e++SESZkSdI21uZg0yaYOdII0O08XSDNdMamVXfQP4Z4m9GtSvqlZmA+7UAe/wDMWl2nyz+HuKyY16Z8tWkLfjQn/CZ9TlG8u49iIhJERAREQEREBERAREQEREBERAThdp9gJi6WXRai606lrlG/qp3EcRO7PDA+I1aTozU6iZHQ5XW99eanipGoP/iZJPofbDs936d9TH11MG24Z03mmx/UHgehM+dob6j/ACPoQdx6S+N2wzx0lIZkZqpNNt5dm1uJqcTewmp1kERmEwA3za4mFpC7DCYs0cThqw0CVlDHd4H8D39jPugnwpcC1c9wo1YWJ4KvFz0F/c2EvmG7aU8Opw1fvHrUmyXVCe8QAFKhY2UFlIvrvDTO2b02x9L1EpVH+IVM+bDYhdf+U2nOy1CZZ9lbUpYhO8pOGXceBVhvVlOqkcjCyfERAREQEREBERAREQEREBERAREQMSJ8x7ZbM7jEd4otTrknTctYasPzAZvUNzn0+cvtBspcTQeiTYkXVvhddVb2IEekWbmnykGxm8GRkzC6OtnRijryddD7cR0Im4PNZXNZpk5mJOkwdwN5kzAbPq1/9mlx8bXVB1zcfQXkZZSeyY2+kBpvwGzamIPgFk41GBy/l+M+mnMiWfA9mKaEGqe9fkRZB6Jx/MT7TvsgAAFunT0nPnzfbF0YcX5cvZ+zEoplRTc2ux1dzzY/sNwlQ7aBBiUCHxmmc45AN4CTz1eWPtB2iTD3poM9Yjwp8I+Jz9lZRKVBizO5zO5LO3Nj+wG4DkJXixyuXktnlJNMGoWUlc2YAkHMb39zYy8fw2rfX4hM3+7pOy8MxNRc3rZQPYSpXCgsxsBqTyE+j9hNjijSasbd5XIdrfZQCyIeoBJPUkcJ0Vnh3drZE8nsq0IiICIiAiIgIiICIiAiIgIiICImuo4UFibAAkk8AN5gUDtxsQrWTEpYLUIp1L3sG3U305nwn1WRsJ2XufHVJ6KuTTlckn9pz+0+3fpjWUkUB5Rqucjc7fuB7+nT2V2mp5FWqWV1ADHKSGIA8QIBGvKUz8pOkTwt/bt4HYlCmQy00JH2m8bezNe06lSottLkysV+1dJQcodyOSsL+hYAfrONiu1eIcZURKQ5nxvb08oPzmMwzyWtxn3XHHbRp0U7yq6ou7xEC55AcT0EqO1+1Lv4MPdU+Nh4jf4VPl9Tr0ErrUszmo7O7/G7Fj+Xgo6C0LVv5Bm+9uQW+8d/tebYcMn8lMuX/lkUCgsTvOZnY3JJ4sTNq1FRc7GwPPT00kNGZ2y00as44hGZFP3VUE+9ieoll2bskUmFSrh8RVqDUMaThE4HInA9TczaWRn4291hsnYT1WFaqMqDyUyNSeDv15Lw3791kobOenrRqGmb30AKE/eTcfUWMmYLFI+isLjepuHHqpsR8p0VQS0kqlyuP6acHtplsuJUJfQVFuUJ+9fye+nWd5SDrOM9G9xwPCc6pj3woCohqI7BEQsF7t2NguZvsHh8J03EWrljrtrhyeXVW2JxMM2NYAuMPT+79ZUPuQVH7yWMUyf7VQBp41N1udPEDquvHUdZntrp0IiJKCIiAiIgIiICIiAiIgJXu2zMMFVychm/9ssBU9smb2lhmFRQQQRcHQjpA+DM9mzEEgqApXWw4i3XnJSDTlLftrsrQOIp0qOaldXqPlN1CCyqqo11S7NfQbkYenp7Ep/xFb/6f9EvjusMtY3W1Jeq17KjMfYD5sRMKtRh5mRL7h52PoNBf5y+r2Ko/aao3q5X9EyzpYTs/Rp+RFU8SBqfVt5k+NV8sXznDbLqVbMEbL8dXRfy0xvPqB6yzdnuzS1mOds6UzlY7gXFiURenEm++wsbkWPH0lp03qHciMx9FBM4+3kqYbY7d1cOaal2XQhqjA1X6HxMb8JXLprx6yW3BYnDKe4ptTUj7ClQfkN86Qn5RxFdVFJ6LVe+8TOTZQr5vB3RU3tl334z9QbGLmhSNTzmmpf8RUXlJWtj3H7Np1gM66jyuNHU81Yag/vxnDw+JdKrYep50AZX4VKZ0D9GB0I567iJaZwu09AZUr7mp1FF+aVGFNlPS7K35BLY3VZ54yxJU3F5F2jhVqIyNuYWuN4PAg8wdfabcM3hnA7R9p1wzd0q5nyhtTZQDcC9tSdDpNrrXbmm99LRsTFGpRUt51JRuroSpI6G2YdDJzoCCCAQRYg7iDvBE+X7A7YutazqpSrVQMAGBUvkphlJJvwJFtdZ9TmFmnXjdx817N7exSbWrbLqMalJQxQsBmRAA6WbewysFN7m/GfS5xNnYemcViaoRc4KU2a3i0po+XNys66ek7ciLUiJGxGKRCqsbFjZRYm50HD1ElCTERAREQEREBERAREQK61O+LqueFOkg9jUY/8A7Hyk60juLYioOaU2/wCov+GSZth6cnL/ACpERLs3P25hy+HrU13tTdR6lSBOjs8JVw6ZlDI9NbqdQVZRoee+eTmbHxH0eocJU0VmLUG4ZSbmnfmCTYcvSZck+7o4cvcY4bsHgKdQVVw65gQygliqsNxCk2FpZ7RPZm3eSv8AbGp9QqDzVK1JVHOzq7f3UY+07ruACSbAaknlKZicZ9LxCsmtGlfI1tHqNoXXmoGgPHM0e7pGV1Np+IxfdU89rklUVfid2CIvS5I14SPtDsZTr+N6r96bZnFsthuUIRYKOHHmTJO1MKz0SqWDqUdL7s6OrqD0JUA+sxobZxDv3K4Xu6mXMS9RCgW9iwyXZteFh6iTyeW5pnxSWXftHwfYTDJdmzu32WZrZDwZAtgGHBt45zdsLtCXorTPjxKu9IqOJpO1M1X+BDlzXPoLmwnKpbWxteuuFWrh6ZdKzZhTdmRaNXuWy/WWZjvF7W5G0uGydmJhqa0qYNhvJ1ZmJuzOeLEkknrKTba6nTLZuE7tbE3djmdrWzOQAT6WAA5AAcJOnM21tHuKRqAZmuFVRclmPQamwuxtwUzDD42oyB1FOqhFwUbKSPuhrqfdhLIdWQtpVSqqdAM4DMRfItj4reoAvwzX4RTxyuGCauoJ7tro1+FwRcAnTNqPWNm1KjJequVrnhl8PC65mseG/hfS9oGeBqllJJvYkBrZcyjc1v0vuNrjQyXEQEREBERAREQERPDA4u0bLiKbXHjRkI4kr4109M8kSlYgNUr1augrU8QchcmyqjWFO41VXTl8d7HdO2naOkule9E7vH5D+GoPCfQkHpNsep25OSy5WR2omqhiUcZkdWB4qQRb2m2WUJrxFBXUo6hlPA/05HrNkRSIdJa9IWSoKijctW+YDl3g1P5gT1mDbWxO76PTB61G/wBE6E8lfCNJy5RwsRha+INsQwyf2SAqp/Gbkv6aDmJ08NhFQAAbt3SSokzGRW53L2xKyDjsK7MtSk4R1BUMVzqVaxKutwSLqDoQdJPMxaLN9UmVl3FV2JsN6GMpVqlbOzGogAXIqowqVXspJuWexJvwEv8AK7XrIlakzMFVc7EsQAAEy3JO7zTs/S0NM1VYMoUtmUgggC5sR6THKSXUdOGVym6gg95iGP2aICjl3rjMx9kKi/32ntfZSkl0ZqTnUslhmPNlIKsepBPWQMDtAqvdomep56hJyotR/GVL2NyM24A2GW9riZ4nH1UUu9SiijUkqzAfmLr+0r5Se2nx5XuNe06GIHdsaiErVphStNlezOoYZu8IClb5tN19OVmld2XiziGpMw0VTVJtlBzZkpHKSSMy5nsTcaSxSUdzqvYiICIiAiIgIiICeGeyJtHHJQptVqNlRBcnpApHaagPpqmk5pu1ItVsAytZlSlnTmfGLggkIOQmzCM5BWoFvuuvlcc8p1Hob7t5mvAU2qM+KdSHrENY70prpTQ+gJY9XadNEnVx42Y9vN585crpx32RTzZ0U034tSY0yfULo3uDJdDF4mnazrWUC1qgCP650GU+mT3EmtTE1MglrhGc5cokYfb6EhKoak50Ae2Un7ri6t6Xv0nXVgdRK3WpKRlZQykaggEH1Eg4d6mHYvRLOgGtAm+n/KY6g/dJsekpcbGuOcy99LpEibNx6V0FRGup9iGGhVgdQQdCDukuRF6SNtDE93Tepa+RGa34QT/SSZE2rSz0aifEjr81Iik9qTjts4lPGa9jxUImQHiAPNb1M5zdrsTVuhqooCFy1NQHsCBYliQu/lIOPxa1UUG2qjwEEsdLkZBqbcpDpdm8RU8YK0lIK5St2Kkg5io8u7d79Jlle+m2ON12zXab1XYVHFQI9lLnMyoyKRZbBc1z595l+7MvfZ+KI3Z64X+UA7vvXPvKPs/YRAVs4s7qL5dLM6optm5W+Vp9Wp7HWhg6mHQkkpUJY2BZ3DEsQNBqd3ASuXrtph3dz+nI2Zs4MatTvKi569W6q9l8Dsg0tp4UG60Y3B0lOTIWsMzsSzuEJyhULEkO7eEWt9o7xN+BZ0VxkbV3qK58KFKpNTMXOigFyCN/hOh0vK2JhO8IqEkorZgSMve1f7TKdQijRB0vwBmMxtvbqucmMkdTZGENNLvbO5zPbcCQAFHRVAHtedKImrEiIgIiICIiAiIgeSldrG7/ABFPCHyU1Fd1+NsxWmrdLqzewl1lIcE4zFOeD00H4VpI4/V2luObykrLnyuOFsS0FplmnnSY9Z3PJZsZgRCmYuTvgR2a4vI9DEKSQCLg2I62vb5EGc/ZeNvnoWZ6iO4KqCzZCxZCeQysupnmCwpGJqO6MhCoQrZdM4KlgFJ3hANevOY+c3JHR8dktvpPw+LGGrh7HJW8LhQSRWUEo4UC5zKCD+FeZljXaKEX8f8AI4/dZU9uI3dsyedBnX8aeNf1FveXrZdYPTV13MoYehF5z83JcMup7dPBjM8e/cQjtBOZ+TX+Vp59PU7lqN6Uqh/wztxaZf5F/Db4cVdfB5iSuHYE72IRL+tzm/SaMZRp0EapiKioqqWKoSWKqCTrbMdBuUA9ZaZwe2JUYSqp0NVRRuN/1pFPQ9AxPtKfLlldLTCY9qZhMGXFCklqbPUFQDKCECsaxUqpF1FguhG8S4bW2u9Kky1EUu4yUypOV6r2VVIOqG7A210B10nJ2Fsk1neqtR6YpgUkZMvm0aobMCrDRF3aFWnm0qbpWao9Z664WmaioVpopxNS6UUBUC7WzbzpnQzbPe9T0cU/13fd7dDZGF+kEo5zUcMVoqn2alWkozu/xBWsoU6XViQdLWyc7YuA7iglK92UXdt2aoxLVHNuLMWPvOjCxERAREQEREBERAREQPJUsQmXE4j7zo/saaLf5oflLaZUttkrjVHCpQuPxUn8X6VVl+O6yjD6ib46yvPGHCAZ7O15bEC2kMZ6DxngECLSJo1TXRM2ZcjquUMwGqsLkAldRbkx5AHWrtUqPXZSmcKiqSL5EzWJtpclm/STGE1sLCZfHj5eTb5srh4fZHxKgqQeKkfMTtdiyTgsMW3mihP8onDxz5Ueodyox+Sky27Jwwp0adMfYRV/lUCcn1f2df0fqpsRNdWsqjMzBRzJAH6zkdjZKT2wx2asmHQ3KeMjeO8ZSEzdFTO7cQMvMSwvtXMD3KGobXzeWn6modGH4c05PYfZ4aiuNqeOtXDOzndlc3ARbeFSoXrYKCTYTTine0ZTc024DbCUcOi08PiXUKMpWk16hOubXdmJzXNt8hKhaphaVRcr4iq+Lqo2/wCqVWRPVGNEf/HLGdnshvQYAf2beT8hGqe11+7Im0HVgpqK9J0bOtTLmVGAIJzLdcpBKkNa4J3G03Rt34nK2BtM16WdlykOyG2qsVNs6HijCxHrbhOrAREQEREBERAREQEREDyV3tYoUUaxsMlUJfmtUGnl/nKH8ssUqv8AEUH6ExW11qUWF+lVJM6u1c5vGxpzTMNNV+E8Z7Tu28fTa5gGY757aSh7aeuBa0wd7SDtHaApJnYFiTlRF1Z3O5VHP9tSdBItkTMbb09rp31anhF4kVKlvs0kYHX8bAL6ZuUvKiUTs539HvHagHq1SGdy4CqAPDTXQnKoJ4am54zrPjMW39lTHMZqh9gQvznm8sy5MtydPW4pjx4ybWa8gY6tQQq1UpmHlzZS2vBb68OEr1XDVXPjr1GHEAimPbIAf1kPFUhSASko72o2RNNWY8WO8gbyZWcN91b5Jeo7r1nxqtTpZqdElkaqRldgDlZaSnUG4ILm1uAO8dzD0FpotNQFVQFVRuCqLAD2EwwGFFKmlIblULfibC1z1MlS8xmPpfZERLIIiICIiAiIgIiICIiAiIgeSsduqoNGnQJ1rV6agcwjd6392mfnLI7gAk6AC5PSfPdoY36TiBiDcUqSstHf4y9g9UjqAAvQk/alsZuqcl1jUutiFUXPQAAEkngABvPSQ8RjHRkNShUUObLcDU6aebQ66A6mWbs/skr9fVH1h8oP+7Q8PxHj8uGvWx2GSojI6hlI1B/70PWaZct3058Ppp49+1N+mWGqVFPMo4HztaYDaF9Ajt6I5/ZZ2dktfC0XfxsyIbnecwvc9bTDZ2Jq1E7xcOSpZgpV08SBiA1mIte0jHm2jL6XX7co067+VAg4Fwf0QEH5kSVs/Y+V+8di72tnb7IO8Ig0QempsLk2nUY1f+HqE9Go/wBXmLVq40GEqH89AD3OeTcpfdTjxXH1G5UEwY3kZ6GOfy06CbvPUdj8kT+s209gVH/9RW0+CiGpg/icksfbLK3OLziyvtDxO0UQmmLu/BF5/ebcu7iZN7M7PBAxjNmeqgK7wtOm1mCIDrfdmJ1JHC1hyKOGTD5qNRcgDsUqHyOhJK3c/bsQDc3Nr6zudmcSvdmmCCEdlUjUFT4hY9M2X8sy8rbqt8eOYzcd6JjmE9kpexEQEREBERAREQEREBERAREQI2Mwq1Uam18rAg2NjY9ZCwmwqVNg/idgbgsQbHmAABfra86sQiyV7MHW4I5iZxCVTTZmJVBh0C5FGRalwCqbvJxYDduH7mwYRQiLTVMqqoVVG4KosAJLiVk0m3bAOJkGE9tFpZBeezy09gYkXmPdDlNkQNfdCZZRMogIiICIiAiIgIiICIiB/9k=;fillColor=#F2CC8F;strokeColor=#E07A5F;fontColor=#393C56;" vertex="1" parent="1">
          <mxGeometry x="117" y="408" width="33.63" height="38.42" as="geometry" />
        </mxCell>
        <mxCell id="bqaqiRXCgSc5tPmss6hg-4" style="edgeStyle=orthogonalEdgeStyle;rounded=0;orthogonalLoop=1;jettySize=auto;html=1;" edge="1" parent="1" source="bqaqiRXCgSc5tPmss6hg-3" target="YeY76Y3rS6GUA46lo31o-11">
          <mxGeometry relative="1" as="geometry" />
        </mxCell>
        <mxCell id="bqaqiRXCgSc5tPmss6hg-3" value="Ptolemaios" style="rounded=0;whiteSpace=wrap;html=1;fillColor=#ffcd28;strokeColor=#d79b00;gradientColor=#ffa500;" vertex="1" parent="1">
          <mxGeometry x="569.5" y="440" width="81" height="35" as="geometry" />
        </mxCell>
        <mxCell id="bqaqiRXCgSc5tPmss6hg-5" value="" style="shape=image;verticalLabelPosition=bottom;verticalAlign=top;aspect=fixed;imageAspect=0;image=data:image/jpeg,/9j/4AAQSkZJRgABAQAAAQABAAD/2wCEAAoHCBYVFRgSFRUYGRgZGBwZHBkcHBgZHBoVGBwaGRoaGBgcIC4mHh8rHxgaJjgmLC8xNTU1HCQ7QDwzPy42NTEBDAwMEA8QHhISHjQhJSsxNDY0NDQ0NDQ3NDQ0NDQ9NDQ0NDQ/NDQ0NDQ0NDE0NDQ0NDQ0NDQ0NDQ0NDQ0NDQ0NP/AABEIAPAA0gMBIgACEQEDEQH/xAAcAAEAAgMBAQEAAAAAAAAAAAAABAYCAwUBBwj/xABEEAACAQIDBQYCCAMFBwUAAAABAgADEQQSIQUxQVFhBhMiMnGBUpEUI0JicoKhsQeSwVOiwtHSM0NUY7Pw8TRzg6Oy/8QAGQEBAAMBAQAAAAAAAAAAAAAAAAECAwQF/8QAJREBAQACAgIBBAIDAAAAAAAAAAECEQMhEjETBEFRYTJxFCJS/9oADAMBAAIRAxEAPwD7NERAREQEREBExJtqZwdo9rMNSuobvGH2U8WvIt5QfUwO/F58/wAX23rNcU6SIODMWc2/CMov7mcTGbYxFTz13t8KnIP7lj8yZPjVLnI+q1MSi73UepA/eZU6isLqwYcwQR8xPiGIw1M+J0Vj8TDN8yZ0uxGPOHxC2JFOq4Qpc5VDeFGCk2Bz29niywmcr7FERIXIiICIiAiIgIiICIiAiIgIiICIiAiJDx+NSihqVGsB7kngAN5J5CBLJlY2x2tp07pS+scaEg+FT1biegv1tKxtnb9XEErqlPggOrD77Df+Eaes5QAEtMfyyy5NekjaO0K2IP1zll+AeFB+UHX3vImQCbLzBwALk2HOX1Iytt9hmms6rqxty5k8gN5PSamxDNpTXT428vsN7ft1mS0QPEbs5Fsx5cgNwHQfrBr8tLIX1cWUbk58i/8Al+/DXjmKozjzIM6/iTxL+oElNNTi4K8DoZVaV9twlUMiuNzKCPQi83yv9hsV3mBw5JuVpim34qfgb9VMsEo6CIiAiIgIiICIiAiIgIiICIiAiIgaqrhVLE2ABJJ4Aakz5jtvajYioahJyC4ReS87fEd5+XCfSsbhhUpvTJIDqVJG8BhbSfHMfhq9Go9Cq4DKbqQls6X0dSWOnTgdPWcdbUz3rpI9JorYlE8zi/LefZRrIwpg+Znb1Nh8lsD7zOlTA0VVUdAB+0vthpsNV38i5B8T7/ZBr87TxMGL5nJcjUZtw9F3e++SESZkSdI21uZg0yaYOdII0O08XSDNdMamVXfQP4Z4m9GtSvqlZmA+7UAe/wDMWl2nyz+HuKyY16Z8tWkLfjQn/CZ9TlG8u49iIhJERAREQEREBERAREQEREBERAThdp9gJi6WXRai606lrlG/qp3EcRO7PDA+I1aTozU6iZHQ5XW99eanipGoP/iZJPofbDs936d9TH11MG24Z03mmx/UHgehM+dob6j/ACPoQdx6S+N2wzx0lIZkZqpNNt5dm1uJqcTewmp1kERmEwA3za4mFpC7DCYs0cThqw0CVlDHd4H8D39jPugnwpcC1c9wo1YWJ4KvFz0F/c2EvmG7aU8Opw1fvHrUmyXVCe8QAFKhY2UFlIvrvDTO2b02x9L1EpVH+IVM+bDYhdf+U2nOy1CZZ9lbUpYhO8pOGXceBVhvVlOqkcjCyfERAREQEREBERAREQEREBERAREQMSJ8x7ZbM7jEd4otTrknTctYasPzAZvUNzn0+cvtBspcTQeiTYkXVvhddVb2IEekWbmnykGxm8GRkzC6OtnRijryddD7cR0Im4PNZXNZpk5mJOkwdwN5kzAbPq1/9mlx8bXVB1zcfQXkZZSeyY2+kBpvwGzamIPgFk41GBy/l+M+mnMiWfA9mKaEGqe9fkRZB6Jx/MT7TvsgAAFunT0nPnzfbF0YcX5cvZ+zEoplRTc2ux1dzzY/sNwlQ7aBBiUCHxmmc45AN4CTz1eWPtB2iTD3poM9Yjwp8I+Jz9lZRKVBizO5zO5LO3Nj+wG4DkJXixyuXktnlJNMGoWUlc2YAkHMb39zYy8fw2rfX4hM3+7pOy8MxNRc3rZQPYSpXCgsxsBqTyE+j9hNjijSasbd5XIdrfZQCyIeoBJPUkcJ0Vnh3drZE8nsq0IiICIiAiIgIiICIiAiIgIiICImuo4UFibAAkk8AN5gUDtxsQrWTEpYLUIp1L3sG3U305nwn1WRsJ2XufHVJ6KuTTlckn9pz+0+3fpjWUkUB5Rqucjc7fuB7+nT2V2mp5FWqWV1ADHKSGIA8QIBGvKUz8pOkTwt/bt4HYlCmQy00JH2m8bezNe06lSottLkysV+1dJQcodyOSsL+hYAfrONiu1eIcZURKQ5nxvb08oPzmMwzyWtxn3XHHbRp0U7yq6ou7xEC55AcT0EqO1+1Lv4MPdU+Nh4jf4VPl9Tr0ErrUszmo7O7/G7Fj+Xgo6C0LVv5Bm+9uQW+8d/tebYcMn8lMuX/lkUCgsTvOZnY3JJ4sTNq1FRc7GwPPT00kNGZ2y00as44hGZFP3VUE+9ieoll2bskUmFSrh8RVqDUMaThE4HInA9TczaWRn4291hsnYT1WFaqMqDyUyNSeDv15Lw3791kobOenrRqGmb30AKE/eTcfUWMmYLFI+isLjepuHHqpsR8p0VQS0kqlyuP6acHtplsuJUJfQVFuUJ+9fye+nWd5SDrOM9G9xwPCc6pj3woCohqI7BEQsF7t2NguZvsHh8J03EWrljrtrhyeXVW2JxMM2NYAuMPT+79ZUPuQVH7yWMUyf7VQBp41N1udPEDquvHUdZntrp0IiJKCIiAiIgIiICIiAiIgJXu2zMMFVychm/9ssBU9smb2lhmFRQQQRcHQjpA+DM9mzEEgqApXWw4i3XnJSDTlLftrsrQOIp0qOaldXqPlN1CCyqqo11S7NfQbkYenp7Ep/xFb/6f9EvjusMtY3W1Jeq17KjMfYD5sRMKtRh5mRL7h52PoNBf5y+r2Ko/aao3q5X9EyzpYTs/Rp+RFU8SBqfVt5k+NV8sXznDbLqVbMEbL8dXRfy0xvPqB6yzdnuzS1mOds6UzlY7gXFiURenEm++wsbkWPH0lp03qHciMx9FBM4+3kqYbY7d1cOaal2XQhqjA1X6HxMb8JXLprx6yW3BYnDKe4ptTUj7ClQfkN86Qn5RxFdVFJ6LVe+8TOTZQr5vB3RU3tl334z9QbGLmhSNTzmmpf8RUXlJWtj3H7Np1gM66jyuNHU81Yag/vxnDw+JdKrYep50AZX4VKZ0D9GB0I567iJaZwu09AZUr7mp1FF+aVGFNlPS7K35BLY3VZ54yxJU3F5F2jhVqIyNuYWuN4PAg8wdfabcM3hnA7R9p1wzd0q5nyhtTZQDcC9tSdDpNrrXbmm99LRsTFGpRUt51JRuroSpI6G2YdDJzoCCCAQRYg7iDvBE+X7A7YutazqpSrVQMAGBUvkphlJJvwJFtdZ9TmFmnXjdx817N7exSbWrbLqMalJQxQsBmRAA6WbewysFN7m/GfS5xNnYemcViaoRc4KU2a3i0po+XNys66ek7ciLUiJGxGKRCqsbFjZRYm50HD1ElCTERAREQEREBERAREQK61O+LqueFOkg9jUY/8A7Hyk60juLYioOaU2/wCov+GSZth6cnL/ACpERLs3P25hy+HrU13tTdR6lSBOjs8JVw6ZlDI9NbqdQVZRoee+eTmbHxH0eocJU0VmLUG4ZSbmnfmCTYcvSZck+7o4cvcY4bsHgKdQVVw65gQygliqsNxCk2FpZ7RPZm3eSv8AbGp9QqDzVK1JVHOzq7f3UY+07ruACSbAaknlKZicZ9LxCsmtGlfI1tHqNoXXmoGgPHM0e7pGV1Np+IxfdU89rklUVfid2CIvS5I14SPtDsZTr+N6r96bZnFsthuUIRYKOHHmTJO1MKz0SqWDqUdL7s6OrqD0JUA+sxobZxDv3K4Xu6mXMS9RCgW9iwyXZteFh6iTyeW5pnxSWXftHwfYTDJdmzu32WZrZDwZAtgGHBt45zdsLtCXorTPjxKu9IqOJpO1M1X+BDlzXPoLmwnKpbWxteuuFWrh6ZdKzZhTdmRaNXuWy/WWZjvF7W5G0uGydmJhqa0qYNhvJ1ZmJuzOeLEkknrKTba6nTLZuE7tbE3djmdrWzOQAT6WAA5AAcJOnM21tHuKRqAZmuFVRclmPQamwuxtwUzDD42oyB1FOqhFwUbKSPuhrqfdhLIdWQtpVSqqdAM4DMRfItj4reoAvwzX4RTxyuGCauoJ7tro1+FwRcAnTNqPWNm1KjJequVrnhl8PC65mseG/hfS9oGeBqllJJvYkBrZcyjc1v0vuNrjQyXEQEREBERAREQERPDA4u0bLiKbXHjRkI4kr4109M8kSlYgNUr1augrU8QchcmyqjWFO41VXTl8d7HdO2naOkule9E7vH5D+GoPCfQkHpNsep25OSy5WR2omqhiUcZkdWB4qQRb2m2WUJrxFBXUo6hlPA/05HrNkRSIdJa9IWSoKijctW+YDl3g1P5gT1mDbWxO76PTB61G/wBE6E8lfCNJy5RwsRha+INsQwyf2SAqp/Gbkv6aDmJ08NhFQAAbt3SSokzGRW53L2xKyDjsK7MtSk4R1BUMVzqVaxKutwSLqDoQdJPMxaLN9UmVl3FV2JsN6GMpVqlbOzGogAXIqowqVXspJuWexJvwEv8AK7XrIlakzMFVc7EsQAAEy3JO7zTs/S0NM1VYMoUtmUgggC5sR6THKSXUdOGVym6gg95iGP2aICjl3rjMx9kKi/32ntfZSkl0ZqTnUslhmPNlIKsepBPWQMDtAqvdomep56hJyotR/GVL2NyM24A2GW9riZ4nH1UUu9SiijUkqzAfmLr+0r5Se2nx5XuNe06GIHdsaiErVphStNlezOoYZu8IClb5tN19OVmld2XiziGpMw0VTVJtlBzZkpHKSSMy5nsTcaSxSUdzqvYiICIiAiIgIiICeGeyJtHHJQptVqNlRBcnpApHaagPpqmk5pu1ItVsAytZlSlnTmfGLggkIOQmzCM5BWoFvuuvlcc8p1Hob7t5mvAU2qM+KdSHrENY70prpTQ+gJY9XadNEnVx42Y9vN585crpx32RTzZ0U034tSY0yfULo3uDJdDF4mnazrWUC1qgCP650GU+mT3EmtTE1MglrhGc5cokYfb6EhKoak50Ae2Un7ri6t6Xv0nXVgdRK3WpKRlZQykaggEH1Eg4d6mHYvRLOgGtAm+n/KY6g/dJsekpcbGuOcy99LpEibNx6V0FRGup9iGGhVgdQQdCDukuRF6SNtDE93Tepa+RGa34QT/SSZE2rSz0aifEjr81Iik9qTjts4lPGa9jxUImQHiAPNb1M5zdrsTVuhqooCFy1NQHsCBYliQu/lIOPxa1UUG2qjwEEsdLkZBqbcpDpdm8RU8YK0lIK5St2Kkg5io8u7d79Jlle+m2ON12zXab1XYVHFQI9lLnMyoyKRZbBc1z595l+7MvfZ+KI3Z64X+UA7vvXPvKPs/YRAVs4s7qL5dLM6optm5W+Vp9Wp7HWhg6mHQkkpUJY2BZ3DEsQNBqd3ASuXrtph3dz+nI2Zs4MatTvKi569W6q9l8Dsg0tp4UG60Y3B0lOTIWsMzsSzuEJyhULEkO7eEWt9o7xN+BZ0VxkbV3qK58KFKpNTMXOigFyCN/hOh0vK2JhO8IqEkorZgSMve1f7TKdQijRB0vwBmMxtvbqucmMkdTZGENNLvbO5zPbcCQAFHRVAHtedKImrEiIgIiICIiAiIgeSldrG7/ABFPCHyU1Fd1+NsxWmrdLqzewl1lIcE4zFOeD00H4VpI4/V2luObykrLnyuOFsS0FplmnnSY9Z3PJZsZgRCmYuTvgR2a4vI9DEKSQCLg2I62vb5EGc/ZeNvnoWZ6iO4KqCzZCxZCeQysupnmCwpGJqO6MhCoQrZdM4KlgFJ3hANevOY+c3JHR8dktvpPw+LGGrh7HJW8LhQSRWUEo4UC5zKCD+FeZljXaKEX8f8AI4/dZU9uI3dsyedBnX8aeNf1FveXrZdYPTV13MoYehF5z83JcMup7dPBjM8e/cQjtBOZ+TX+Vp59PU7lqN6Uqh/wztxaZf5F/Db4cVdfB5iSuHYE72IRL+tzm/SaMZRp0EapiKioqqWKoSWKqCTrbMdBuUA9ZaZwe2JUYSqp0NVRRuN/1pFPQ9AxPtKfLlldLTCY9qZhMGXFCklqbPUFQDKCECsaxUqpF1FguhG8S4bW2u9Kky1EUu4yUypOV6r2VVIOqG7A210B10nJ2Fsk1neqtR6YpgUkZMvm0aobMCrDRF3aFWnm0qbpWao9Z664WmaioVpopxNS6UUBUC7WzbzpnQzbPe9T0cU/13fd7dDZGF+kEo5zUcMVoqn2alWkozu/xBWsoU6XViQdLWyc7YuA7iglK92UXdt2aoxLVHNuLMWPvOjCxERAREQEREBERAREQPJUsQmXE4j7zo/saaLf5oflLaZUttkrjVHCpQuPxUn8X6VVl+O6yjD6ib46yvPGHCAZ7O15bEC2kMZ6DxngECLSJo1TXRM2ZcjquUMwGqsLkAldRbkx5AHWrtUqPXZSmcKiqSL5EzWJtpclm/STGE1sLCZfHj5eTb5srh4fZHxKgqQeKkfMTtdiyTgsMW3mihP8onDxz5Ueodyox+Sky27Jwwp0adMfYRV/lUCcn1f2df0fqpsRNdWsqjMzBRzJAH6zkdjZKT2wx2asmHQ3KeMjeO8ZSEzdFTO7cQMvMSwvtXMD3KGobXzeWn6modGH4c05PYfZ4aiuNqeOtXDOzndlc3ARbeFSoXrYKCTYTTine0ZTc024DbCUcOi08PiXUKMpWk16hOubXdmJzXNt8hKhaphaVRcr4iq+Lqo2/wCqVWRPVGNEf/HLGdnshvQYAf2beT8hGqe11+7Im0HVgpqK9J0bOtTLmVGAIJzLdcpBKkNa4J3G03Rt34nK2BtM16WdlykOyG2qsVNs6HijCxHrbhOrAREQEREBERAREQEREDyV3tYoUUaxsMlUJfmtUGnl/nKH8ssUqv8AEUH6ExW11qUWF+lVJM6u1c5vGxpzTMNNV+E8Z7Tu28fTa5gGY757aSh7aeuBa0wd7SDtHaApJnYFiTlRF1Z3O5VHP9tSdBItkTMbb09rp31anhF4kVKlvs0kYHX8bAL6ZuUvKiUTs539HvHagHq1SGdy4CqAPDTXQnKoJ4am54zrPjMW39lTHMZqh9gQvznm8sy5MtydPW4pjx4ybWa8gY6tQQq1UpmHlzZS2vBb68OEr1XDVXPjr1GHEAimPbIAf1kPFUhSASko72o2RNNWY8WO8gbyZWcN91b5Jeo7r1nxqtTpZqdElkaqRldgDlZaSnUG4ILm1uAO8dzD0FpotNQFVQFVRuCqLAD2EwwGFFKmlIblULfibC1z1MlS8xmPpfZERLIIiICIiAiIgIiICIiAiIgeSsduqoNGnQJ1rV6agcwjd6392mfnLI7gAk6AC5PSfPdoY36TiBiDcUqSstHf4y9g9UjqAAvQk/alsZuqcl1jUutiFUXPQAAEkngABvPSQ8RjHRkNShUUObLcDU6aebQ66A6mWbs/skr9fVH1h8oP+7Q8PxHj8uGvWx2GSojI6hlI1B/70PWaZct3058Ppp49+1N+mWGqVFPMo4HztaYDaF9Ajt6I5/ZZ2dktfC0XfxsyIbnecwvc9bTDZ2Jq1E7xcOSpZgpV08SBiA1mIte0jHm2jL6XX7co067+VAg4Fwf0QEH5kSVs/Y+V+8di72tnb7IO8Ig0QempsLk2nUY1f+HqE9Go/wBXmLVq40GEqH89AD3OeTcpfdTjxXH1G5UEwY3kZ6GOfy06CbvPUdj8kT+s209gVH/9RW0+CiGpg/icksfbLK3OLziyvtDxO0UQmmLu/BF5/ebcu7iZN7M7PBAxjNmeqgK7wtOm1mCIDrfdmJ1JHC1hyKOGTD5qNRcgDsUqHyOhJK3c/bsQDc3Nr6zudmcSvdmmCCEdlUjUFT4hY9M2X8sy8rbqt8eOYzcd6JjmE9kpexEQEREBERAREQEREBERAREQI2Mwq1Uam18rAg2NjY9ZCwmwqVNg/idgbgsQbHmAABfra86sQiyV7MHW4I5iZxCVTTZmJVBh0C5FGRalwCqbvJxYDduH7mwYRQiLTVMqqoVVG4KosAJLiVk0m3bAOJkGE9tFpZBeezy09gYkXmPdDlNkQNfdCZZRMogIiICIiAiIgIiICIiB/9k=;fillColor=#F2CC8F;strokeColor=#E07A5F;fontColor=#393C56;" vertex="1" parent="1">
          <mxGeometry x="634.0000000000001" y="415" width="33.63" height="38.42" as="geometry" />
        </mxCell>
        <mxCell id="bqaqiRXCgSc5tPmss6hg-8" style="edgeStyle=orthogonalEdgeStyle;rounded=0;orthogonalLoop=1;jettySize=auto;html=1;" edge="1" parent="1" source="bqaqiRXCgSc5tPmss6hg-6" target="YeY76Y3rS6GUA46lo31o-1">
          <mxGeometry relative="1" as="geometry" />
        </mxCell>
        <mxCell id="bqaqiRXCgSc5tPmss6hg-9" value="Setup and unseal vault" style="edgeLabel;html=1;align=center;verticalAlign=middle;resizable=0;points=[];" vertex="1" connectable="0" parent="bqaqiRXCgSc5tPmss6hg-8">
          <mxGeometry x="0.271" relative="1" as="geometry">
            <mxPoint as="offset" />
          </mxGeometry>
        </mxCell>
        <mxCell id="bqaqiRXCgSc5tPmss6hg-6" value="Peisistratos" style="rounded=0;whiteSpace=wrap;html=1;fillColor=#6a00ff;strokeColor=#3700CC;fontColor=#ffffff;" vertex="1" parent="1">
          <mxGeometry x="567" y="999" width="86" height="42" as="geometry" />
        </mxCell>
        <mxCell id="bqaqiRXCgSc5tPmss6hg-10" value="&lt;h3 style=&quot;&quot;&gt;&lt;font style=&quot;font-size: 12px; font-weight: normal;&quot;&gt;Solon Flow&lt;/font&gt;&lt;/h3&gt;&lt;h1 style=&quot;margin-top: 0px;&quot;&gt;&lt;ol style=&quot;font-size: 12px;&quot;&gt;&lt;li style=&quot;&quot;&gt;&lt;p&gt;&lt;font style=&quot;font-size: 12px;&quot;&gt;Initial Vault Configuration (Peisistratos):&lt;/font&gt;&lt;/p&gt;&lt;ul&gt;&lt;li&gt;&lt;font style=&quot;font-size: 12px;&quot;&gt;Peisistratos&lt;span style=&quot;font-weight: normal;&quot;&gt; is responsible for the initial setup of Vault. It creates the necessary &lt;/span&gt;Vault&lt;span style=&quot;font-weight: normal;&quot;&gt; configuration and unseals Vault for the first time.&lt;/span&gt;&lt;/font&gt;&lt;/li&gt;&lt;li&gt;&lt;font style=&quot;font-size: 12px;&quot;&gt;&lt;span style=&quot;font-weight: normal;&quot;&gt;During this process, &lt;/span&gt;Vault&lt;span style=&quot;font-weight: normal;&quot;&gt; policies are created for &lt;/span&gt;Solon&lt;span style=&quot;font-weight: normal;&quot;&gt; and &lt;/span&gt;Ptolemaios&lt;span style=&quot;font-weight: normal;&quot;&gt;.&lt;/span&gt;&lt;/font&gt;&lt;/li&gt;&lt;li&gt;&lt;font style=&quot;font-size: 12px;&quot;&gt;Ptolemaios&lt;span style=&quot;font-weight: normal;&quot;&gt; is granted read-only permissions, while &lt;/span&gt;Solon&lt;span style=&quot;font-weight: normal;&quot;&gt; is given more extensive permissions, including the ability to create tokens.&lt;/span&gt;&lt;/font&gt;&lt;/li&gt;&lt;/ul&gt;&lt;/li&gt;&lt;li style=&quot;&quot;&gt;&lt;p&gt;&lt;font style=&quot;font-size: 12px;&quot;&gt;Role Creation in Elasticsearch (Drakon):&lt;/font&gt;&lt;/p&gt;&lt;ul&gt;&lt;li&gt;&lt;font style=&quot;font-size: 12px;&quot;&gt;Drakon&lt;span style=&quot;font-weight: normal;&quot;&gt; is responsible for creating various role combinations in &lt;/span&gt;Elasticsearch&lt;span style=&quot;font-weight: normal;&quot;&gt;.&lt;/span&gt;&lt;/font&gt;&lt;/li&gt;&lt;li&gt;&lt;font style=&quot;font-size: 12px; font-weight: normal;&quot;&gt;For example, the role combination &quot;api - dictionary &#39;read&#39;&quot; would correspond to a role named &lt;code&gt;dictionary_api&lt;/code&gt;.&lt;/font&gt;&lt;/li&gt;&lt;/ul&gt;&lt;/li&gt;&lt;li style=&quot;&quot;&gt;&lt;p&gt;&lt;font style=&quot;font-size: 12px;&quot;&gt;API/Seeder Initialization (Periandros):&lt;/font&gt;&lt;/p&gt;&lt;ul&gt;&lt;li&gt;&lt;font style=&quot;font-size: 12px;&quot;&gt;&lt;span style=&quot;font-weight: normal;&quot;&gt;When an API or Seeder is created, &lt;/span&gt;Periandros&lt;span style=&quot;font-weight: normal;&quot;&gt; first launches as an init container.&lt;/span&gt;&lt;/font&gt;&lt;/li&gt;&lt;li&gt;&lt;font style=&quot;font-size: 12px;&quot;&gt;Periandros&lt;span style=&quot;font-weight: normal;&quot;&gt; requests &lt;/span&gt;Solon&lt;span style=&quot;font-weight: normal;&quot;&gt; to create a new user based on the annotations taken from the pod (as described in the earlier flow examples). These are checked using the &lt;/span&gt;Kubernetes&lt;span style=&quot;font-weight: normal;&quot;&gt; &lt;/span&gt;api&lt;span style=&quot;font-weight: normal;&quot;&gt; &lt;/span&gt;server&lt;span style=&quot;font-weight: normal;&quot;&gt;.&lt;/span&gt;&lt;/font&gt;&lt;/li&gt;&lt;li&gt;&lt;font style=&quot;font-size: 12px;&quot;&gt;&lt;span style=&quot;font-weight: normal;&quot;&gt;Solon validates that the pod annotations are correctly set and match the pod’s name. Once validated, &lt;/span&gt;Solon&lt;span style=&quot;font-weight: normal;&quot;&gt; creates a new user in &lt;/span&gt;Elasticsearch&lt;span style=&quot;font-weight: normal;&quot;&gt; with a generated password and assigns the requested roles (e.g., &lt;/span&gt;&lt;code style=&quot;font-weight: normal;&quot;&gt;grammar_api&lt;/code&gt;&lt;span style=&quot;font-weight: normal;&quot;&gt;, matching the roles created by &lt;/span&gt;Drakon&lt;span style=&quot;font-weight: normal;&quot;&gt;).&lt;/span&gt;&lt;/font&gt;&lt;/li&gt;&lt;li&gt;&lt;font style=&quot;font-size: 12px;&quot;&gt;&lt;span style=&quot;font-weight: normal;&quot;&gt;The newly created username, password, and certificate are then stored in &lt;/span&gt;Vault&lt;span style=&quot;font-weight: normal;&quot;&gt; by &lt;/span&gt;Solon&lt;span style=&quot;font-weight: normal;&quot;&gt;.&lt;/span&gt;&lt;/font&gt;&lt;/li&gt;&lt;/ul&gt;&lt;/li&gt;&lt;li style=&quot;&quot;&gt;&lt;p style=&quot;&quot;&gt;&lt;font style=&quot;font-size: 12px; font-weight: normal;&quot;&gt;Main API Startup and Configuration (&lt;/font&gt;&lt;font style=&quot;font-size: 12px;&quot;&gt;Ptolemaios&lt;/font&gt;&lt;font style=&quot;font-size: 12px; font-weight: normal;&quot;&gt;):&lt;/font&gt;&lt;/p&gt;&lt;ul style=&quot;&quot;&gt;&lt;li style=&quot;&quot;&gt;&lt;font style=&quot;font-size: 12px;&quot;&gt;&lt;span style=&quot;font-weight: normal;&quot;&gt;After the user has been created and stored in Vault, &lt;/span&gt;Periandros&lt;span style=&quot;font-weight: normal;&quot;&gt; exits, allowing the main API to start.&lt;/span&gt;&lt;/font&gt;&lt;/li&gt;&lt;li style=&quot;&quot;&gt;&lt;font style=&quot;font-size: 12px;&quot;&gt;&lt;span style=&quot;font-weight: normal;&quot;&gt;During its configuration process, the main API makes a call to its sidecar, &lt;/span&gt;Ptolemaios&lt;span style=&quot;font-weight: normal;&quot;&gt;, to retrieve the created user credentials from &lt;/span&gt;Vault&lt;span style=&quot;font-weight: normal;&quot;&gt;.&lt;/span&gt;&lt;/font&gt;&lt;/li&gt;&lt;li style=&quot;&quot;&gt;&lt;font style=&quot;font-size: 12px;&quot;&gt;Ptolemaios&lt;span style=&quot;font-weight: normal;&quot;&gt; requests a one-time token for &lt;/span&gt;&lt;/font&gt;&lt;font style=&quot;font-size: 12px;&quot;&gt;Vault&lt;/font&gt;&lt;font style=&quot;font-size: 12px;&quot;&gt;&lt;span style=&quot;font-weight: normal;&quot;&gt; from &lt;/span&gt;Solon&lt;span style=&quot;font-weight: normal;&quot;&gt;. A future enhancement will include an additional check to ensure that the &lt;/span&gt;Ptolemaios&lt;span style=&quot;font-weight: normal;&quot;&gt; sidecar making the request is indeed part of the annotated pod.&lt;/span&gt;&lt;/font&gt;&lt;/li&gt;&lt;li style=&quot;&quot;&gt;&lt;font style=&quot;font-size: 12px;&quot;&gt;&lt;span style=&quot;font-weight: normal;&quot;&gt;Once the token is created, &lt;/span&gt;Ptolemaios&lt;span style=&quot;font-weight: normal;&quot;&gt; retrieves the configuration data stored in &lt;/span&gt;Vault&lt;span style=&quot;font-weight: normal;&quot;&gt; and passes it to the main API, which then completes its configuration and startup process.&lt;/span&gt;&lt;/font&gt;&lt;/li&gt;&lt;/ul&gt;&lt;/li&gt;&lt;/ol&gt;&lt;/h1&gt;" style="text;html=1;whiteSpace=wrap;overflow=hidden;rounded=0;" vertex="1" parent="1">
          <mxGeometry x="866" y="28" width="719" height="655" as="geometry" />
        </mxCell>
        <mxCell id="bqaqiRXCgSc5tPmss6hg-11" value="&lt;br&gt;&lt;ul class=&quot;obj collapsible&quot; style=&quot;box-sizing: border-box; -webkit-tap-highlight-color: rgba(255, 255, 255, 0); list-style-type: none; padding: 0px; margin: 0px 0px 0px 2em; color: rgb(255, 255, 255); font-family: monospace; font-size: 13px; font-style: normal; font-variant-ligatures: normal; font-variant-caps: normal; font-weight: 400; letter-spacing: normal; orphans: 2; text-align: left; text-indent: 0px; text-transform: none; widows: 2; word-spacing: 0px; -webkit-text-stroke-width: 0px; white-space: pre; background-color: rgb(17, 23, 26); text-decoration-thickness: initial; text-decoration-style: initial; text-decoration-color: initial;&quot;&gt;&lt;li style=&quot;box-sizing: border-box; -webkit-tap-highlight-color: rgba(255, 255, 255, 0); position: relative; display: block;&quot;&gt;&lt;div class=&quot;hoverable&quot; style=&quot;box-sizing: border-box; -webkit-tap-highlight-color: rgba(255, 255, 255, 0); padding: 1px 2px; border-radius: 2px; display: inline-block;&quot;&gt;&lt;span class=&quot;property token string&quot; style=&quot;box-sizing: border-box; -webkit-tap-highlight-color: rgba(255, 255, 255, 0); color: white;&quot;&gt;{ &lt;br&gt;&lt;span style=&quot;white-space: pre;&quot;&gt;&#x9;&lt;/span&gt;&quot;access&quot;&lt;/span&gt;: &lt;span class=&quot;token string&quot; style=&quot;box-sizing: border-box; -webkit-tap-highlight-color: rgba(255, 255, 255, 0); color: rgb(160, 251, 170);&quot;&gt;&quot;[grammar]&quot;&lt;/span&gt;&lt;span class=&quot;token punctuation&quot; style=&quot;box-sizing: border-box; -webkit-tap-highlight-color: rgba(255, 255, 255, 0); opacity: 0.7;&quot;&gt;,&lt;/span&gt;&lt;/div&gt;&lt;/li&gt;&lt;li style=&quot;box-sizing: border-box; -webkit-tap-highlight-color: rgba(255, 255, 255, 0); position: relative; display: block;&quot;&gt;&lt;div class=&quot;hoverable&quot; style=&quot;box-sizing: border-box; -webkit-tap-highlight-color: rgba(255, 255, 255, 0); padding: 1px 2px; border-radius: 2px; display: inline-block;&quot;&gt;&lt;span class=&quot;property token string&quot; style=&quot;box-sizing: border-box; -webkit-tap-highlight-color: rgba(255, 255, 255, 0); color: white;&quot;&gt;&lt;span style=&quot;white-space: pre;&quot;&gt;&#x9;&lt;/span&gt;&quot;podName&quot;&lt;/span&gt;: &lt;span class=&quot;token string&quot; style=&quot;box-sizing: border-box; -webkit-tap-highlight-color: rgba(255, 255, 255, 0); color: rgb(160, 251, 170);&quot;&gt;&quot;dionysios-544c584d7f-6sp6x&quot;&lt;/span&gt;&lt;span class=&quot;token punctuation&quot; style=&quot;box-sizing: border-box; -webkit-tap-highlight-color: rgba(255, 255, 255, 0); opacity: 0.7;&quot;&gt;,&lt;/span&gt;&lt;/div&gt;&lt;/li&gt;&lt;li style=&quot;box-sizing: border-box; -webkit-tap-highlight-color: rgba(255, 255, 255, 0); position: relative; display: block;&quot;&gt;&lt;div class=&quot;hoverable&quot; style=&quot;box-sizing: border-box; -webkit-tap-highlight-color: rgba(255, 255, 255, 0); padding: 1px 2px; border-radius: 2px; display: inline-block;&quot;&gt;&lt;span class=&quot;property token string&quot; style=&quot;box-sizing: border-box; -webkit-tap-highlight-color: rgba(255, 255, 255, 0); color: white;&quot;&gt;&lt;span style=&quot;white-space: pre;&quot;&gt;&#x9;&lt;/span&gt;&quot;roles&quot;&lt;/span&gt;: &lt;span class=&quot;token string&quot; style=&quot;box-sizing: border-box; -webkit-tap-highlight-color: rgba(255, 255, 255, 0); color: rgb(160, 251, 170);&quot;&gt;&quot;api&quot;&lt;/span&gt;&lt;span class=&quot;token punctuation&quot; style=&quot;box-sizing: border-box; -webkit-tap-highlight-color: rgba(255, 255, 255, 0); opacity: 0.7;&quot;&gt;,&lt;/span&gt;&lt;/div&gt;&lt;/li&gt;&lt;li style=&quot;box-sizing: border-box; -webkit-tap-highlight-color: rgba(255, 255, 255, 0); position: relative; display: block;&quot;&gt;&lt;div class=&quot;hoverable&quot; style=&quot;box-sizing: border-box; -webkit-tap-highlight-color: rgba(255, 255, 255, 0); padding: 1px 2px; border-radius: 2px; display: inline-block;&quot;&gt;&lt;span class=&quot;property token string&quot; style=&quot;box-sizing: border-box; -webkit-tap-highlight-color: rgba(255, 255, 255, 0); color: white;&quot;&gt;&lt;span style=&quot;white-space: pre;&quot;&gt;&#x9;&lt;/span&gt;&quot;username&quot;&lt;/span&gt;: &lt;span class=&quot;token string&quot; style=&quot;box-sizing: border-box; -webkit-tap-highlight-color: rgba(255, 255, 255, 0); color: rgb(160, 251, 170);&quot;&gt;&quot;dionysios&quot;&lt;br&gt;}&lt;/span&gt;&lt;/div&gt;&lt;/li&gt;&lt;/ul&gt;" style="text;whiteSpace=wrap;html=1;fillColor=#000000;fillStyle=solid;" vertex="1" parent="1">
          <mxGeometry x="850" y="775" width="436" height="145" as="geometry" />
        </mxCell>
        <mxCell id="bqaqiRXCgSc5tPmss6hg-12" value="&lt;b&gt;&lt;font style=&quot;font-size: 18px;&quot;&gt;Example Creation Request&lt;/font&gt;&lt;/b&gt;" style="text;html=1;align=center;verticalAlign=middle;resizable=0;points=[];autosize=1;strokeColor=none;fillColor=none;" vertex="1" parent="1">
          <mxGeometry x="850" y="729" width="246" height="34" as="geometry" />
        </mxCell>
      </root>
    </mxGraphModel>
  </diagram>
</mxfile>
